<svg xmlns="http://www.w3.org/2000/svg" viewBox="0 0 854 292.62"><defs><style>.cls-1{fill:#ebf3fa;}.cls-2{fill:#f3f8fc;}.cls-3{fill:#eef5fb;}.cls-4{fill:#e8f0fd;}.cls-5{fill:#c0d8fb;}.cls-6{fill:#dfebfd;}.cls-7{fill:#b7d3f3;}.cls-8{fill:#deedff;}.cls-9{fill:#2e3552;}.cls-10{fill:#122544;}.cls-11{fill:#d2e3fc;}.cls-12{fill:#82b378;}.cls-13{fill:#a8d29f;}.cls-14{fill:#2b478b;}.cls-15{fill:#ea9e6a;}.cls-16{fill:#d88d59;}.cls-17{fill:#8e342e;}.cls-18{fill:#233862;}.cls-19{fill:#b24940;}.cls-20{fill:#c65447;}.cls-21{fill:#f9ddbf;}.cls-22{fill:#ed7d2b;}.cls-23{fill:#ffb27d;}.cls-24{fill:#ed985f;}.cls-25{fill:#fff;}.cls-26{fill:#f99746;}.cls-27{fill:#ffc397;}.cls-28{fill:#2c3a64;}</style></defs><g id="Layer_2" data-name="Layer 2"><g id="Layer_1-2" data-name="Layer 1"><path class="cls-1" d="M299.49,216.84V419.48l-243.8.86c.62-8.86-39.51-125.69,11.92-192.44,73-94.75,135.37-18.13,217.72-11.47a138.08,138.08,0,0,0,14.16.41Z" transform="translate(-28.07 -127.72)"/><path class="cls-2" d="M859.67,415.56c-.17,1.27-6.9,1.17-13.62,1.06s-13.31-.22-13.49,1l-164.8.58H299.49V216.84a130.82,130.82,0,0,0,14.17-1.15c16.16-2.2,33.1-7.75,51.07-18.2C550.64,89.67,702,118.94,787,203.12a253.1,253.1,0,0,1,72.67,212.44" transform="translate(-28.07 -127.72)"/><path class="cls-2" d="M667.76,419.64H299.49v-.16l368.27-1.26,164.8-.58c.13-.88,3.6-1.08,8-1.08h0c1.45,0,3,0,4.59.05h.88c1.88,0,3.76.06,5.49.06,4.42,0,7.91-.2,8.12-1.08,0,0,0,0,0,0h0c.22-1.76.43-3.53.62-5.3q1.26-12,1.4-23.9c0-.64,0-1.28,0-1.92a253.11,253.11,0,0,1-2,32.55c-.12.92-3.65,1.12-8.12,1.12-1.74,0-3.62,0-5.49-.06s-3.75-.06-5.48-.06c-4.42,0-7.89.19-8,1.09l-164.8.56" transform="translate(-28.07 -127.72)"/><path class="cls-3" d="M845.74,416.61h0m-.57,0c-1.58,0-3.14-.05-4.59-.05,1.45,0,3,0,4.59.05m-4.61-.05h0m19.1-1s0,0,0,0,0,0,0,0m0,0c.22-1.76.43-3.53.62-5.3-.19,1.77-.4,3.54-.62,5.3m2-29.2c0-.89,0-1.79,0-2.68v.76c0,.64,0,1.28,0,1.92" transform="translate(-28.07 -127.72)"/><polygon class="cls-4" points="761.16 136.5 761.16 290.5 285.59 290.5 285.59 156.49 322.04 156.49 322.04 119.92 358.5 119.92 358.5 169.33 388.01 169.33 388.01 158.29 439.42 158.29 439.42 176.95 461.8 176.95 461.8 135.03 521.69 135.03 521.69 63.15 569.05 63.15 569.05 101.49 579.85 101.49 579.85 69.37 627.21 69.37 627.21 118.84 670.13 118.84 670.13 88.48 716.03 88.48 716.03 118.84 724.59 118.84 724.59 136.5 761.16 136.5 761.16 136.5"/><path class="cls-5" d="M244.63,277.71H202.34a3.54,3.54,0,0,1-3.53-3.53V233.36a3.54,3.54,0,0,1,3.53-3.53h42.29a3.54,3.54,0,0,1,3.53,3.53v40.82a3.54,3.54,0,0,1-3.53,3.53Z" transform="translate(-28.07 -127.72)"/><path class="cls-6" d="M242.79,275.64H204.17a3.23,3.23,0,0,1-3.23-3.23V235.13a3.23,3.23,0,0,1,3.23-3.22h38.62a3.23,3.23,0,0,1,3.23,3.22v37.28a3.23,3.23,0,0,1-3.23,3.23Z" transform="translate(-28.07 -127.72)"/><path class="cls-7" d="M222.46,236.28a1,1,0,1,1,1,1,1,1,0,0,1-1-1Z" transform="translate(-28.07 -127.72)"/><path class="cls-7" d="M230.71,237.72a1,1,0,1,1,1.78,1,1,1,0,1,1-1.78-1Z" transform="translate(-28.07 -127.72)"/><path class="cls-7" d="M237.77,243.34a1,1,0,0,1,1.42.3,1,1,0,1,1-1.42-.3Z" transform="translate(-28.07 -127.72)"/><path class="cls-7" d="M241.27,252a1,1,0,1,1-1,1,1,1,0,0,1,1-1Z" transform="translate(-28.07 -127.72)"/><path class="cls-7" d="M239.49,262.11a1,1,0,1,1-1.45,0,1,1,0,0,1,1.45,0Z" transform="translate(-28.07 -127.72)"/><path class="cls-7" d="M233.07,268.55a1,1,0,0,1,0,1.44,1,1,0,0,1-1.45,0,1,1,0,0,1,0-1.44,1,1,0,0,1,1.45,0Z" transform="translate(-28.07 -127.72)"/><path class="cls-7" d="M222.46,271.86a1,1,0,1,1,1,1,1,1,0,0,1-1-1Z" transform="translate(-28.07 -127.72)"/><path class="cls-7" d="M216.22,237.72a1,1,0,0,0-1.79,1,1,1,0,1,0,1.79-1Z" transform="translate(-28.07 -127.72)"/><path class="cls-7" d="M209.15,243.34a1,1,0,1,0,.31,1.41,1,1,0,0,0-.31-1.41Z" transform="translate(-28.07 -127.72)"/><path class="cls-7" d="M205.65,252a1,1,0,1,0,1,1,1,1,0,0,0-1-1Z" transform="translate(-28.07 -127.72)"/><path class="cls-7" d="M207.44,262.11a1,1,0,1,0,1.45,0,1,1,0,0,0-1.45,0Z" transform="translate(-28.07 -127.72)"/><path class="cls-7" d="M213.86,268.55a1,1,0,0,0,0,1.44,1,1,0,0,0,1.45,0,1,1,0,0,0,0-1.44,1,1,0,0,0-1.45,0Z" transform="translate(-28.07 -127.72)"/><path class="cls-7" d="M223.21,253.05a1,1,0,1,1,2,0,1,1,0,1,1-2,0Z" transform="translate(-28.07 -127.72)"/><polygon class="cls-7" points="196.3 125.33 196.02 125.33 196.02 112.56 196.3 112.56 196.3 125.33 196.3 125.33"/><polygon class="cls-7" points="196.29 125.64 195.77 124.98 202.54 119.67 203.06 120.33 196.29 125.64 196.29 125.64"/><path class="cls-8" d="M313.66,215.69V417.16H285.32V216.42a129.45,129.45,0,0,0,28.34-.73Z" transform="translate(-28.07 -127.72)"/><path class="cls-8" d="M815.34,236.6V417.16H787v-214a250.81,250.81,0,0,1,28.34,33.48Z" transform="translate(-28.07 -127.72)"/><path class="cls-9" d="M880.84,420.05H29.3a1.23,1.23,0,0,1-1.23-1.23v-1.21a1.24,1.24,0,0,1,1.23-1.23H880.84a1.24,1.24,0,0,1,1.23,1.23v1.21a1.24,1.24,0,0,1-1.23,1.23Z" transform="translate(-28.07 -127.72)"/><polygon class="cls-7" points="308.82 218.33 304.28 218.33 309.84 288.77 320.9 288.77 308.82 218.33 308.82 218.33"/><path class="cls-10" d="M427.27,325.49l-1,.2a8.09,8.09,0,0,1-9.5-6.3l-1-5.1a8.09,8.09,0,0,1,6.31-9.5l1-.19a8.08,8.08,0,0,1,9.5,6.3l1,5.1a8.08,8.08,0,0,1-6.31,9.49Z" transform="translate(-28.07 -127.72)"/><path class="cls-7" d="M332.35,346.05s24.82-11.66,58.82-3.9l-54.28,3.9Z" transform="translate(-28.07 -127.72)"/><path class="cls-11" d="M349,417.16l-12.08-71.11s38-12.77,67.54,0L422,416.71l-73,.45Z" transform="translate(-28.07 -127.72)"/><path class="cls-12" d="M611.9,395.14c-.68,7.71-5,10.1-6.95,9.89s-13.12-4.48-13.36-2.91,6.5,6.7,11.22,6.94c0,0-8.92,9.83-14.84,7s-6.43-7.33-10.13-9-6.85-1.68-5.32,0,8.21,3.39,10.32,7.13c.5.88,1,1.7,1.36,2.41l-12.48,0c-4-2-7.29-4.68-7.54-7.6,0-.23,0-.44,0-.65l-.38-4.49s-6.41-7.48-3.08-13.68a9.37,9.37,0,0,1,2.54-2.94s6-3.62,10.84-3.32c0,0-3.77,6.32-4.84,10.08-.37,1.33-.41,2.34.17,2.64s1.46-.63,2.31-2.16c2.14-3.83,4.45-11.29,4.45-11.29s3.59-.35,7.68-.4c1.83,0,3.76,0,5.52.17a15,15,0,0,1,4.76,1l-.65.55c-.61.51-1.59,1.34-2.67,2.3-3.23,2.85-7.41,6.87-5.85,7.23,1.27.29,5.25-2.07,8.79-4.42,3.29-2.18,6.21-4.35,6.21-4.35s12.64,2.16,12,9.87Z" transform="translate(-28.07 -127.72)"/><path class="cls-12" d="M605.68,395.35s-34.35-1.32-41.93,8.5a24.91,24.91,0,0,1-6.84,9.6l-.81,2.19s5.95-6.27,8.08-6.65c0,0-3.33-12.17,41.5-13.64Z" transform="translate(-28.07 -127.72)"/><path class="cls-12" d="M558.35,413.39c-.29.33-.74.76-1.37,1.35h0a8,8,0,0,0-.64.66,11.66,11.66,0,0,0-.91,1.14h-1.61a19.42,19.42,0,0,1,3.09-3.1h0c.12-.08,3.08-1.87,1.44-.06Z" transform="translate(-28.07 -127.72)"/><path class="cls-13" d="M526.25,391.07s13.86-7.76,7.39-18.3c0,0-5.18-6.47-10.72-8.13,0,0,3,15.71,0,16.08s-2-17.74-2-17.74-14.6-7-20.33-6.47c0,0,9.06,15.34,6.1,15s-13.12-15.89-13.12-15.89-15-2.77-17.37,6.09,1.48,13.31,3.69,13.86,16.45.37,16.08,2.22-10,4.81-15.34,3.14c0,0,5.92,14.6,13.68,13.86s10.16-5.54,15-5.91,8.32.92,5.92,2.22-10.53.42-14.41,3.72-7,5.33.18,6.81,20.14.55,22.73-5l2.59-5.54Z" transform="translate(-28.07 -127.72)"/><path class="cls-12" d="M483,364.45s38.8,12.57,43.24,26.62a29.44,29.44,0,0,0,3.69,13.49v2.77s-4.06-9.43-6.28-10.72c0,0,8.68-12.2-40.65-32.16Z" transform="translate(-28.07 -127.72)"/><path class="cls-12" d="M533.54,416.52h-2.22a28.76,28.76,0,0,0-1.54-9.55h0a9,9,0,0,0-.44-1h0c-.46-.9-.77-1.57-1-2.05h0c-1.13-2.78,1.58.64,1.58.64a26.07,26.07,0,0,1,3.6,12Z" transform="translate(-28.07 -127.72)"/><path class="cls-13" d="M548.3,380.36s-18.27-10.23-9.75-24.11c0,0,6.82-8.53,14.13-10.72,0,0-3.9,20.7,0,21.19s2.68-23.38,2.68-23.38,19.24-9.26,26.79-8.53c0,0-11.93,20.22-8,19.73s17.29-21,17.29-21,19.73-3.65,22.9,8-1.95,17.54-4.87,18.27-21.68.49-21.2,2.92,13.16,6.34,20.22,4.15c0,0-7.79,19.24-18,18.26s-13.4-7.3-19.73-7.79-11,1.22-7.8,2.92,13.89.56,19,4.91,9.26,7-.24,9-26.55.73-30-6.58l-3.41-7.31Z" transform="translate(-28.07 -127.72)"/><path class="cls-12" d="M605.29,345.28s-51.15,16.57-57,35.08a38.84,38.84,0,0,1-4.88,17.78v3.66s5.36-12.42,8.29-14.13c0,0-11.45-16.08,53.58-42.39Z" transform="translate(-28.07 -127.72)"/><path class="cls-12" d="M545.5,397.3h0c-.26.63-.67,1.51-1.28,2.7h0c-.21.42-.41.85-.59,1.3h0c-1.75,4.39-2.1,10.45-2,15.22h-2.94a34.34,34.34,0,0,1,4.76-18.39h0c.08-.09,3.56-4.45,2.08-.84Z" transform="translate(-28.07 -127.72)"/><path class="cls-14" d="M457.34,416.71H387.85a75.81,75.81,0,0,1-2.71-7.92,134.13,134.13,0,0,1-4.08-22c0-.1,0-.2,0-.29a257.51,257.51,0,0,1-1.22-32.95c.11-4.34.28-7,.29-7.14h0l.45-.18c3.68-1.55,7.22-2.88,10.6-4h0q4.27-1.45,8.23-2.53a119.59,119.59,0,0,1,12.94-2.83,96.63,96.63,0,0,1,12.77-1.18h.51c1,0,2,0,2.93,0,9.51.21,15.84,2.1,19,3.36.45.18.83.34,1.14.49l.13.05c.36.16.64.3.84.4l.08,0,.27.15,5,52.66,2.28,23.95Z" transform="translate(-28.07 -127.72)"/><path class="cls-14" d="M526.58,405.33c-7,3.23-48.37,5.94-52.34,4.8-2.05-.59-10.58-8.11-19.17-17.36h0C446.93,384,438.74,373.71,436,366.3a45.35,45.35,0,0,1-.79-28.75s10.56-.05,14.87,2.55,28.94,48,32.23,49.17,42.3,3.43,46.77,5.55c0,0,4.49,7.28-2.47,10.51Z" transform="translate(-28.07 -127.72)"/><path class="cls-15" d="M425.61,337.45V340s.72,8-9.16,9.21-17.36-3.11-17.1-9.29c.88-4.8,1.85-8.09,1.91-12.05a26.79,26.79,0,0,0-.36-4.8l19.14-.42,5.64.92-.06,13.87Z" transform="translate(-28.07 -127.72)"/><path class="cls-16" d="M425.67,323.58l-.06,13.87a16.08,16.08,0,0,1-6.89,1.53c-8.79,0-17.55-14.14-17.83-15.9l24.78.5Z" transform="translate(-28.07 -127.72)"/><path class="cls-15" d="M426.79,330.31s-24.5,5-27.37-10.31-8-25,7.56-28.8,19.66,1.43,21.86,6.31,4.25,31.11-2,32.8Z" transform="translate(-28.07 -127.72)"/><path class="cls-17" d="M433.59,286.13a51.46,51.46,0,0,1-14.9-4c-6.55-2.83-14.8.31-17.47,1.73a4,4,0,0,1,.65-1.62,3.59,3.59,0,0,0-1.38,2c-.13.09-.18.16-.15.18a4.64,4.64,0,0,0-2.24.14s.61-.08.84.31a.31.31,0,0,0,.09.11c-10.19,5-11.11,21.08-7.82,24.8,4,4.49,8.71,14.59,8.71,14.59a8.69,8.69,0,0,0,1-6.34c-.73-3.95,2.69-3.95,7-5.76s.71-6.82,4.48-9.88,17.6-1.29,17.41-3.62c5.14-1.88,3.79-12.16,3.79-12.68Z" transform="translate(-28.07 -127.72)"/><path class="cls-18" d="M387.85,416.71a75.81,75.81,0,0,1-2.71-7.92,134.13,134.13,0,0,1-4.08-22c0-.1,0-.2,0-.29s.14.17.2.1c2.71-3.29,10.09-6.89,19,6.21,1.79,2.61,9.61,20.89,10.86,23.94Z" transform="translate(-28.07 -127.72)"/><path class="cls-15" d="M395.11,416.71a7.38,7.38,0,0,1,.95-4.52s1.14-.75,2.67-1.61c2.27-1.28,5.37-2.83,6.77-2.58.26,0,.59.12,1,.21,3.33.81,11.11,3.2,12.28,4.6,1,1.16,2.29,2.62,3.2,3.9Z" transform="translate(-28.07 -127.72)"/><path class="cls-14" d="M400.25,416.71H334.78a4,4,0,0,1,.05-2.2c1.95-4.93,5.77-13.05,10.15-21.77,3.23-6.41,6.77-13.14,10.11-19.16,4.64-8.36,8.89-15.35,11.39-18.22a29.74,29.74,0,0,1,7-5.71,50.87,50.87,0,0,1,6.57-3.28h0l.45-.18a57.92,57.92,0,0,1,8.17-2.66s.05,2.07.05,5.25c0,9.23-.34,27.82-3.28,32.36a60.05,60.05,0,0,1-4.26,5.42,1.46,1.46,0,0,0-.16.19c-1,1.21-2.19,2.52-3.39,3.86-6.83,7.65-15.49,16.64-16.54,17.73l-.11.12h.13l18.35.25,5.64.08,11.67.16a4.48,4.48,0,0,1,1.92,1.63,11.88,11.88,0,0,1,1.52,6.13Z" transform="translate(-28.07 -127.72)"/><path class="cls-18" d="M526.58,405.33c-7,3.23-48.37,5.94-52.34,4.8-2.05-.59-10.58-8.11-19.17-17.36.42.06,4.35-6.49,22.26,9.17,0,0,4.69,2.09,17.45.92s29.16-1.6,31.8,2.47Z" transform="translate(-28.07 -127.72)"/><path class="cls-19" d="M485.9,416.59H438.56a3.78,3.78,0,0,1,3.78-3.78H485.9v3.78Z" transform="translate(-28.07 -127.72)"/><polygon class="cls-19" points="457.7 237.31 530.89 237.31 513.33 288.87 439.67 288.87 457.7 237.31 457.7 237.31"/><polygon class="cls-20" points="531.97 237.31 514.41 288.87 440.75 288.87 458.78 237.31 531.97 237.31 531.97 237.31"/><path class="cls-21" d="M520.58,390.33a4.77,4.77,0,0,1-4.39,3.57,2.75,2.75,0,0,1-2.75-3.57,4.77,4.77,0,0,1,4.39-3.57,2.75,2.75,0,0,1,2.75,3.57Z" transform="translate(-28.07 -127.72)"/><polygon class="cls-19" points="531.97 237.31 514.41 288.87 480.14 288.87 521.19 237.31 531.97 237.31 531.97 237.31"/><path class="cls-10" d="M406.54,325.49l-1,.2a8.09,8.09,0,0,1-9.5-6.3l-1-5.1a8.09,8.09,0,0,1,6.3-9.5l1-.19a8.07,8.07,0,0,1,9.49,6.3l1,5.1a8.07,8.07,0,0,1-6.3,9.49Z" transform="translate(-28.07 -127.72)"/><path class="cls-10" d="M399,307.13c-.65-1.18-1.61-10.68,1-18.23a12.06,12.06,0,0,1,5.86-7.14,6.22,6.22,0,0,1,3-.78l2.58,0c-8.47,3.58-10.44,22.76-9.78,24.81a.77.77,0,0,0-.06-.15L399,307.13Z" transform="translate(-28.07 -127.72)"/><path class="cls-10" d="M423.66,327.09c-14.23,0-21.27-11.25-21.34-11.36l1.27-.78-.64.39.64-.39c.07.11,6.7,10.65,20.07,10.65h.27v1.49Z" transform="translate(-28.07 -127.72)"/><path class="cls-14" d="M404.25,320.5l-.49.1a4,4,0,0,1-4.73-3.14l-.51-2.54a4,4,0,0,1,3.14-4.74l.48-.09a4,4,0,0,1,4.74,3.14l.51,2.54a4,4,0,0,1-3.14,4.73Z" transform="translate(-28.07 -127.72)"/><path class="cls-10" d="M425.43,327.59h-1.34a1.25,1.25,0,1,1,0-2.49h1.34a1.25,1.25,0,0,1,0,2.49Z" transform="translate(-28.07 -127.72)"/><path class="cls-17" d="M140.76,305.32s-11.94,6.1-3.24,19.21c0,0-10.26,1.19-12.84-1.76a8.53,8.53,0,0,0,.84,1.92s-9.93-1.3-13.49-5.07,7.54-53.86,34-43.61c0,0,23.54,2.15,16.86,28.67s2.09,28,2.09,28a12.62,12.62,0,0,1-3.82.59s-1.61-.94-1.79-1.95a6.24,6.24,0,0,0,.45,2.1s-9.62-.69-13.75-5.06-7.59-17.72-5.31-23Z" transform="translate(-28.07 -127.72)"/><path class="cls-22" d="M157.8,318.42l-1,.14a7.85,7.85,0,0,1-8.81-6.67l-.69-5a7.84,7.84,0,0,1,6.66-8.81l1-.13a7.84,7.84,0,0,1,8.81,6.67l.69,5a7.83,7.83,0,0,1-6.66,8.81Z" transform="translate(-28.07 -127.72)"/><path class="cls-23" d="M160.52,358.47c-3.56,2.75-5.81,12.68-11.56,14.32-21.53,6.15-33.08-19.42-36.87-31.9a19,19,0,0,1,7.27-2.65c1.57-.27,3.22-.47,4.58-.61,2.35-2,5.61-9.85,5.81-21.8l1,.22,17.41,3.82s-.51,5.5-.63,10.68c-.09,4.05-.23,5,.09,5.51,1.35.22,3,3.68,3,3.68h0a110.71,110.71,0,0,1,9.9,18.72Z" transform="translate(-28.07 -127.72)"/><path class="cls-24" d="M148.2,319.88s-.51,5.49-.63,10.67c-9.78-.47-14.77-9.51-16.78-14.5l17.41,3.83Z" transform="translate(-28.07 -127.72)"/><path class="cls-11" d="M236.76,410.17s-10.24.38-21.36.42h-4c-9.06,0-18-.36-21.74-1.33s-17.93-10.6-29.32-22.28h0c-.89,2.1-1.55,3.71-1.57,3.84a61.08,61.08,0,0,1-1.57,7.77,95,95,0,0,1-7,18h-6.1l-47.61-.07s9-13.85,6.58-49.33c-.06-.9,8.29-29.53,8.29-29.53s6.49-1.14,14-1.74c.71.64,2.17,19.48,11.55,20.57,1.52.18,11.31,15.12,11.31,15.12l3-15.26-3.5-20.26a105.6,105.6,0,0,1,10.7,3.28,11.77,11.77,0,0,1,6,5.31c6.56,12,27.82,50.59,30,51.49s9.7,2.38,17.8,3.86h0c10.85,2,22.49,3.86,22.49,3.86l2.14,6.31Z" transform="translate(-28.07 -127.72)"/><polygon class="cls-11" points="125.53 288.86 122.12 288.87 122.13 288.85 125.53 288.86 125.53 288.86"/><path class="cls-23" d="M151.1,325.11s-23.15-.45-22.65-14.87-2.14-24.18,12.66-24.5,17.48,5.29,18.49,10.14-2.46,29-8.5,29.23Z" transform="translate(-28.07 -127.72)"/><path class="cls-7" d="M215.4,410.59h-4c-9.06,0-18-.36-21.74-1.33s-17.93-10.6-29.32-22.28h0s2.4-9.2,3.43-10.74,5.12,13.42,14.67,19.51,24.48,10.35,31.73,8.63c4.89-1.17,5.39,3.23,5.2,6.22Z" transform="translate(-28.07 -127.72)"/><path class="cls-25" d="M146.55,317.09s.15,1.72,3.95,2c0,0,3.19.23,3.32-1.63a9.37,9.37,0,0,0-7.27-.37Z" transform="translate(-28.07 -127.72)"/><path class="cls-10" d="M147.81,322.92c-13.16-4.16-16.38-16.61-16.42-16.74l1.41-.35-.7.18.7-.18c0,.12,3.08,11.8,15.44,15.71l.25.08-.42,1.38-.26-.08Z" transform="translate(-28.07 -127.72)"/><path class="cls-22" d="M149.3,323.89l-1.24-.39a1.21,1.21,0,1,1,.72-2.3l1.24.39a1.22,1.22,0,0,1,.79,1.52,1.21,1.21,0,0,1-1.51.78Z" transform="translate(-28.07 -127.72)"/><path class="cls-17" d="M152.42,283.83s-5.93,17.56-14.82,20.54-11.84-.55-11.84-.55a25.72,25.72,0,0,0,7.3-15.75s14.37-11.42,19.36-4.24Z" transform="translate(-28.07 -127.72)"/><path class="cls-17" d="M141.35,289s12.07-.68,15.67,2.76c2.61,2.48,2.55,3.77,2.75,7.08,0,0,5.28-8.15-.16-13.85-5.75-6-18.26,4-18.26,4Z" transform="translate(-28.07 -127.72)"/><path class="cls-17" d="M151.9,285.69s-3,16.8-14.07,22.9c0,0,10.7-10.95,10.89-21.91s3.18-1,3.18-1Z" transform="translate(-28.07 -127.72)"/><path class="cls-17" d="M112,319.62c3.56,3.77,13.5,5.07,13.5,5.07a8.53,8.53,0,0,1-.84-1.92c5.11,4.14,17.65,1.13,17.65,1.13-10-2.21-6.76-16.64-3.36-17.26a309.7,309.7,0,0,1,7.76-30.54c-.45-.07-.7-.09-.7-.09-26.46-10.25-37.56,39.85-34,43.61Z" transform="translate(-28.07 -127.72)"/><path class="cls-22" d="M133.76,316.94l-1,.14a7.85,7.85,0,0,1-8.81-6.67l-.69-5A7.84,7.84,0,0,1,130,296.6l1-.13a7.84,7.84,0,0,1,8.81,6.66l.69,5a7.83,7.83,0,0,1-6.66,8.81Z" transform="translate(-28.07 -127.72)"/><path class="cls-22" d="M127.5,298.72c-.56-1.07,1.43-9.34,4.36-15.76,1.42-3.11,5-7.26,7.54-8.33a5.45,5.45,0,0,1,3.15,0,23.74,23.74,0,0,1,2.76,1.11c-8.39,2.61-15.68,20.18-15.15,22a.73.73,0,0,0,0-.12l-2.61,1.1Z" transform="translate(-28.07 -127.72)"/><path class="cls-26" d="M131.83,312l-.47.07a3.9,3.9,0,0,1-4.39-3.32l-.35-2.49a3.9,3.9,0,0,1,3.32-4.39l.48-.07a3.9,3.9,0,0,1,4.39,3.32l.35,2.49a3.9,3.9,0,0,1-3.33,4.39Z" transform="translate(-28.07 -127.72)"/><path class="cls-23" d="M188,401.83s9.93-.57,10.9-.05c1.56.84,6.9,4.28,7.73,5.27a55.41,55.41,0,0,1,3,5s-.95.27-1.38-.12-3.67-3.82-3.67-3.82l3.33,5.05a2.84,2.84,0,0,1-1.61-.55c-.45-.5-3.56-3.67-3.56-3.67l-1.06-.2a10.93,10.93,0,0,1,1.66,1.65,10.09,10.09,0,0,1,1,1.62,8,8,0,0,1-1.25-.3c-.29-.14-3.08-2.58-3.08-2.58l1.48,2a3.72,3.72,0,0,1-1.33-.27c-.32-.22-2.5-2.22-2.88-2.21a12.92,12.92,0,0,1-4.35-.75c-1.19-.63-4.93-2.07-4.93-2.07v-4Z" transform="translate(-28.07 -127.72)"/><path class="cls-7" d="M126.71,333.13s-6.64,1.93-8.15,3.46c0,0,6.94,17.74,16.95,26l2.67-1.9V365l10,6.55s-22-33.09-21.49-38.45Z" transform="translate(-28.07 -127.72)"/><path class="cls-7" d="M157.23,398.58a95,95,0,0,1-7,18h3.39l-3.4,0H118.56l3.66,0c-.09-.32,5.35-15.05-3.66-21.09s-12.3-20.92-12.3-20.92l28.72-7s11.84,17.27,15.21,20.56c2.58,2.53,8.61,2.72,8.61,2.72l-1.57,7.77Z" transform="translate(-28.07 -127.72)"/><path class="cls-7" d="M147.66,336.06s3.05,24.14.54,35.52c0,0,4.1-7.53,4.67-8.91l-.69-4.14,2.65.92s-2.33-19.25-4.44-22.62-2.89-3.7-2.89-3.7l.16,2.93Z" transform="translate(-28.07 -127.72)"/><path class="cls-23" d="M236.76,410.17s-12.81.48-25.33.42c-3.11-4.82.69-10.59.69-10.59h0c10.85,2,22.49,3.86,22.49,3.86l2.14,6.31Z" transform="translate(-28.07 -127.72)"/><path class="cls-22" d="M238,416.59H190.63a3.77,3.77,0,0,1,3.77-3.78H238v3.78Z" transform="translate(-28.07 -127.72)"/><polygon class="cls-22" points="282.95 237.31 265.4 288.87 191.73 288.87 209.76 237.31 282.95 237.31 282.95 237.31"/><polygon class="cls-26" points="282.95 237.31 265.56 288.39 265.4 288.87 192.81 288.87 210.84 237.31 282.95 237.31 282.95 237.31"/><path class="cls-27" d="M272.64,390.33a4.76,4.76,0,0,1-4.39,3.57,2.74,2.74,0,0,1-2.74-3.57,4.76,4.76,0,0,1,4.39-3.57,2.74,2.74,0,0,1,2.74,3.57Z" transform="translate(-28.07 -127.72)"/><polygon class="cls-22" points="282.95 237.31 265.56 288.39 232.21 288.39 272.88 237.31 282.95 237.31 282.95 237.31"/><path class="cls-23" d="M188,405.84s-24.37,2.13-37.83,1.53V394.13c8.82,2.44,37.82,7.7,37.82,7.7v4Z" transform="translate(-28.07 -127.72)"/><path class="cls-11" d="M118.56,336.59s-13.94.32-18.25,5,4.28,31,4.28,31,26,31.82,39,34.06c0,0,5.68.78,8.33.82,0,0-2.6-7.57,2.24-12.32,0,0-5.57-1.55-5.8-2.25s-29.77-56.27-29.77-56.27Z" transform="translate(-28.07 -127.72)"/><path class="cls-28" d="M701,276.63s-14.11-5.26-22.93,5.05c-5.06,5.92-37.39,67.56-37,72.95a12.34,12.34,0,0,0,3.47,8.1s-1.34-4.72-.33-7.18c0,0-.65,8.31,4.48,11.85,2.67,1.84,69.23-1.77,75-9.83C736.22,340,708.76,331,709.43,312c.39-11,11.18-34.31-8.48-35.41Z" transform="translate(-28.07 -127.72)"/><path class="cls-22" d="M714.4,315.89l-.94.19a7.84,7.84,0,0,1-9.21-6.11l-1-5a7.83,7.83,0,0,1,6.11-9.2l.95-.2a7.83,7.83,0,0,1,9.2,6.12l1,4.94a7.84,7.84,0,0,1-6.11,9.21Z" transform="translate(-28.07 -127.72)"/><path class="cls-26" d="M774.79,416.49H730.63C723.14,404.6,716.56,388.55,715,376c-.73-5.93-.32-11.06,1.66-14.57,6.17-10.89-3.62-23.68-3.62-23.68s13.48,3.81,16.61,14.91c3.19,11.32,11.75,48.95,11.75,48.95l32.79,6.75a15.26,15.26,0,0,1,.58,8.09Z" transform="translate(-28.07 -127.72)"/><path class="cls-22" d="M774.79,416.49H730.63C723.14,404.6,716.56,388.55,715,376l6.55-2s8.29,37.83,13.11,38.41,40.11,4,40.11,4Z" transform="translate(-28.07 -127.72)"/><path class="cls-23" d="M719.59,355.69a40.5,40.5,0,0,1-13.39,7.58c-21.11,7.46-31.49-9.93-36-22.15a18.58,18.58,0,0,1,7.09-3.09c1.54-.36,3.18-.67,4.53-.89,2.23-2.14,5-10.18,4.46-22.12l1,.16,17.61,2.74s-.17,5.52,0,10.7c.16,4.05.54,7.89,1.41,8.75l2.19.23v0a110.79,110.79,0,0,1,11,18.07Z" transform="translate(-28.07 -127.72)"/><path class="cls-24" d="M704.91,317.93s-.17,5.51,0,10.69c-9.79.13-15.32-8.58-17.64-13.44l17.61,2.75Z" transform="translate(-28.07 -127.72)"/><path class="cls-26" d="M728,374c-.05.38-4.75,15.68-4.8,16.06-1.64,12.82-4.59,26.49-4.59,26.49l-6.47,0-42.68-.08S674.59,401,661,377.14c-.45-.78-.91-1.57-1.4-2.37-1.93-3.18,10.27-37.14,10.27-37.14s5.35-.95,12.84-1.55c.71.65,5.92,19.7,15.34,20.28,12.3.75,7.64-20.47,7.64-20.47,5,1,6.82,1.37,13.25,4.45,0,0,9.29,31.61,9,33.7Z" transform="translate(-28.07 -127.72)"/><path class="cls-23" d="M708.13,323s-23.14,1-23.52-13.44-3.62-24,11.13-25.23,17.77,4.19,19.07,9-.67,29.08-6.68,29.7Z" transform="translate(-28.07 -127.72)"/><path class="cls-25" d="M703.1,315.24s.25,1.72,4.06,1.76c0,0,3.19,0,3.21-1.83a9.36,9.36,0,0,0-7.27.07Z" transform="translate(-28.07 -127.72)"/><path class="cls-10" d="M704.71,321c-13.39-3.34-17.37-15.57-17.41-15.7l1.38-.43-.69.22.69-.22a23.94,23.94,0,0,0,16.38,14.72l.25.07-.33,1.4-.27-.06Z" transform="translate(-28.07 -127.72)"/><path class="cls-28" d="M706.26,321.87l-1.27-.32a1.21,1.21,0,0,1,.59-2.34l1.26.32a1.21,1.21,0,0,1-.58,2.34Z" transform="translate(-28.07 -127.72)"/><path class="cls-28" d="M695,275.33s14.9-2.33,21.06,10.07c4.69,9.44.78,15.34-1.06,17.14,0,0-2.43-13.55-7-14.71a4.92,4.92,0,0,0-4.94,1.43c-2,2.33-4.9,12.7-8.22,14.29,0,0-10.32,2.55-10.83-1.05s-.22-14.82,2.38-16.62S695,275.33,695,275.33Z" transform="translate(-28.07 -127.72)"/><path class="cls-22" d="M690.32,315.89l-1,.19a7.83,7.83,0,0,1-9.2-6.11l-1-5a7.83,7.83,0,0,1,6.11-9.2l.94-.2a7.84,7.84,0,0,1,9.21,6.12l1,4.94a7.84,7.84,0,0,1-6.11,9.21Z" transform="translate(-28.07 -127.72)"/><path class="cls-22" d="M683,298.08c-.64-1-1.57-9.3,1-15.89A10.93,10.93,0,0,1,689.6,276a6.7,6.7,0,0,1,2.93-.68l2.49,0c-8.21,3.12-10.11,19.83-9.47,21.62,0-.06,0-.1-.06-.13L683,298.08Z" transform="translate(-28.07 -127.72)"/><path class="cls-26" d="M688.09,311l-.47.1a3.9,3.9,0,0,1-4.58-3l-.5-2.47a3.9,3.9,0,0,1,3-4.59l.47-.09a3.91,3.91,0,0,1,4.59,3.05l.5,2.46a3.9,3.9,0,0,1-3,4.58Z" transform="translate(-28.07 -127.72)"/><path class="cls-22" d="M669.44,416.49S674.59,401,661,377.14l5.06-6.32s8.95,25.37,20.15,32.76,24.31,5.84,25.9,13l-42.68-.08Z" transform="translate(-28.07 -127.72)"/><path class="cls-26" d="M669.88,337.63s-9.21.8-15.37,11.7-17.88,51.6-17.88,67.16h49.29a15.38,15.38,0,0,0-.58-8.09l-30.5-5.88s18.36-27.27,18.55-39-3.51-25.87-3.51-25.87Z" transform="translate(-28.07 -127.72)"/><path class="cls-23" d="M686.22,411.49s9.6-.94,11.19-.51a47.51,47.51,0,0,1,7.16,3,29,29,0,0,1,3,2.55,6.36,6.36,0,0,1-1.95.07c-.73-.16-2.89-.31-3.47-.35a17.69,17.69,0,0,0-2.65.38H684.57l1.65-5.1Z" transform="translate(-28.07 -127.72)"/><path class="cls-18" d="M773.19,416.59H725.85a3.77,3.77,0,0,1,3.77-3.78h43.57v3.78Z" transform="translate(-28.07 -127.72)"/><polygon class="cls-18" points="818.17 237.31 800.62 288.87 726.95 288.87 744.98 237.31 818.17 237.31 818.17 237.31"/><polygon class="cls-14" points="818.17 237.31 800.78 288.39 800.62 288.87 728.03 288.87 746.06 237.31 818.17 237.31 818.17 237.31"/><path class="cls-26" d="M807.86,390.33a4.77,4.77,0,0,1-4.39,3.57,2.74,2.74,0,0,1-2.74-3.57,4.76,4.76,0,0,1,4.39-3.57,2.75,2.75,0,0,1,2.74,3.57Z" transform="translate(-28.07 -127.72)"/><polygon class="cls-18" points="818.17 237.31 800.78 288.39 767.43 288.39 808.09 237.31 818.17 237.31 818.17 237.31"/></g></g></svg>