<svg xmlns="http://www.w3.org/2000/svg" viewBox="0 0 77.77 77.76"><defs><style>.cls-1{fill:#00a99d;}</style></defs><g id="Layer_2" data-name="Layer 2"><g id="Layer_1-2" data-name="Layer 1"><path class="cls-1" d="M51.71,37.36,35.56,25.62a1.94,1.94,0,0,0-3.09,1.57V50.66a1.94,1.94,0,0,0,1.06,1.74,2,2,0,0,0,.89.21,1.93,1.93,0,0,0,1.14-.38L51.71,40.5a1.93,1.93,0,0,0,0-3.14Z"/><path class="cls-1" d="M38.89,0A38.88,38.88,0,1,0,77.77,38.89,38.89,38.89,0,0,0,38.89,0Zm0,71.27A32.39,32.39,0,1,1,71.27,38.89,32.38,32.38,0,0,1,38.89,71.27Z"/></g></g></svg>