<svg xmlns="http://www.w3.org/2000/svg" viewBox="0 0 73.44 73.44"><defs><style>.cls-1{fill:#484759;}</style></defs><g id="Layer_2" data-name="Layer 2"><g id="Layer_1-2" data-name="Layer 1"><path class="cls-1" d="M54.49,52.12v-12a5.92,5.92,0,0,0,0-11.61v-12A1.19,1.19,0,0,0,53.3,15.4H48.57a1.15,1.15,0,0,0-.84.35l-.11.11a30.63,30.63,0,0,1-21.78,9H17.77a3.56,3.56,0,0,0-3.56,3.55V40.28a3.56,3.56,0,0,0,3.56,3.55H19V54.49A3.56,3.56,0,0,0,22.51,58h2.36a3.56,3.56,0,0,0,3.56-3.55V53.31h1.18a3.56,3.56,0,1,0,0-7.11H28.43V44a30.51,30.51,0,0,1,19.19,8.9l.11.11a1.19,1.19,0,0,0,.84.35H53.3A1.19,1.19,0,0,0,54.49,52.12ZM16.58,40.28V39.09h7.11V36.72H16.58V32h7.11V29.62H16.58V28.43a1.18,1.18,0,0,1,1.19-1.18h8.29V41.47H17.77A1.18,1.18,0,0,1,16.58,40.28Zm13,8.29a1.19,1.19,0,1,1,0,2.37H28.43V48.57Zm-3.55,5.92a1.19,1.19,0,0,1-1.19,1.19H22.51a1.19,1.19,0,0,1-1.19-1.19V43.83h4.74Zm2.37-27.35a32.9,32.9,0,0,0,19-7.85V49.42a32.83,32.83,0,0,0-19-7.85Zm23.69,23.8H49.75V17.77h2.37Zm4.74-16.59a3.55,3.55,0,0,1-2.37,3.34V31a3.55,3.55,0,0,1,2.37,3.33Z"/><path class="cls-1" d="M54.49,9.48A9.45,9.45,0,0,0,66,18.74c.25.41.51.81.75,1.23l2.06-1.16c-.17-.3-.36-.59-.54-.89A9.47,9.47,0,1,0,55.52,5.2c-.49-.3-1-.6-1.5-.87L52.9,6.42c.62.32,1.22.68,1.81,1a9.62,9.62,0,0,0-.22,2ZM64,2.37a7.11,7.11,0,1,1-7.1,7.11A7.12,7.12,0,0,1,64,2.37Z"/><path class="cls-1" d="M5.19,17.92c-.29.5-.59,1-.87,1.5l2.09,1.12c.33-.61.69-1.21,1-1.81a8.93,8.93,0,0,0,2,.23A9.46,9.46,0,0,0,18.73,7.47c.42-.25.82-.51,1.24-.74L18.81,4.66c-.3.17-.59.36-.89.54A9.47,9.47,0,1,0,5.19,17.92ZM9.48,2.37A7.11,7.11,0,1,1,2.37,9.48,7.11,7.11,0,0,1,9.48,2.37Z"/><path class="cls-1" d="M68.25,55.53c.29-.5.59-1,.87-1.5L67,52.91c-.33.61-.69,1.21-1,1.8A9.46,9.46,0,0,0,54.49,64a9.36,9.36,0,0,0,.22,2c-.41.26-.82.52-1.24.75l1.16,2.07c.3-.17.59-.36.89-.54A9.47,9.47,0,1,0,68.25,55.53ZM64,71.07A7.11,7.11,0,1,1,71.07,64,7.1,7.1,0,0,1,64,71.07Z"/><path class="cls-1" d="M19,64A9.45,9.45,0,0,0,7.47,54.71c-.25-.41-.51-.82-.75-1.23L4.66,54.63c.16.3.36.6.54.9A9.47,9.47,0,1,0,17.92,68.25c.49.3,1,.6,1.5.87L20.54,67c-.62-.33-1.22-.68-1.81-1A9.69,9.69,0,0,0,19,64Zm-9.47,7.1a7.11,7.11,0,1,1,7.1-7.1A7.11,7.11,0,0,1,9.48,71.07Z"/><path class="cls-1" d="M4,47.19c-.23-.73-.44-1.47-.62-2.2l-2.3.56c.19.78.42,1.58.66,2.36Z"/><path class="cls-1" d="M.56,43.16l2.34-.42c-.14-.75-.25-1.52-.32-2.26l-2.36.25c.08.8.2,1.61.34,2.43Z"/><path class="cls-1" d="M.15,33.41l2.36.21c.07-.77.16-1.53.28-2.28L.45,31Q.26,32.2.15,33.41Z"/><path class="cls-1" d="M5.67,51.44c-.32-.69-.63-1.39-.91-2.1l-2.2.87c.3.76.63,1.52,1,2.25Z"/><path class="cls-1" d="M.91,28.57l2.31.52c.17-.74.36-1.48.58-2.21L1.53,26.2C1.3,27,1.09,27.77.91,28.57Z"/><path class="cls-1" d="M5.4,22.59l-2.16-1c-.33.73-.64,1.49-.93,2.26l2.22.83c.27-.72.56-1.43.87-2.12Z"/><path class="cls-1" d="M2.4,38.2c0-.49,0-1,0-1.48,0-.27,0-.54,0-.82L0,35.85c0,.29,0,.58,0,.87,0,.53,0,1.05,0,1.57Z"/><path class="cls-1" d="M45,70.07l.57,2.3c.79-.19,1.58-.41,2.35-.66l-.72-2.26c-.72.23-1.46.44-2.2.62Z"/><path class="cls-1" d="M35.9,71.06l-.06,2.37h.88c.53,0,1.05,0,1.57,0L38.19,71c-.76,0-1.53,0-2.29,0Z"/><path class="cls-1" d="M31,73c.81.12,1.63.22,2.43.3l.21-2.36c-.76-.07-1.52-.17-2.27-.28Z"/><path class="cls-1" d="M40.48,70.87l.25,2.36c.8-.09,1.61-.21,2.43-.35l-.42-2.33c-.75.13-1.52.24-2.26.32Z"/><path class="cls-1" d="M21.61,70.2c.75.34,1.51.65,2.27.94l.82-2.23c-.7-.26-1.41-.55-2.11-.86Z"/><path class="cls-1" d="M49.34,68.68l.87,2.2c.75-.29,1.51-.62,2.24-1l-1-2.14C50.75,68.1,50,68.4,49.34,68.68Z"/><path class="cls-1" d="M26.2,71.91c.77.23,1.57.44,2.37.62l.52-2.31c-.75-.17-1.49-.36-2.21-.58Z"/><path class="cls-1" d="M71.13,49.57l-2.22-.83c-.27.71-.56,1.43-.87,2.11l2.16,1c.33-.74.64-1.5.93-2.26Z"/><path class="cls-1" d="M72.53,44.88l-2.31-.53c-.17.75-.36,1.49-.58,2.22l2.27.67c.23-.77.44-1.56.62-2.36Z"/><path class="cls-1" d="M72.88,30.29l-2.34.41c.14.76.25,1.52.32,2.27l2.36-.26c-.08-.79-.2-1.61-.34-2.42Z"/><path class="cls-1" d="M73.29,40l-2.36-.21c-.07.77-.16,1.52-.28,2.27l2.34.37c.13-.81.23-1.63.3-2.43Z"/><path class="cls-1" d="M71,35.25q0,.73,0,1.47c0,.28,0,.55,0,.82l2.37.06c0-.29,0-.58,0-.88,0-.52,0-1,0-1.57Z"/><path class="cls-1" d="M67.77,22c.32.68.63,1.38.91,2.1l2.2-.88c-.3-.75-.63-1.51-1-2.24Z"/><path class="cls-1" d="M72.37,27.9c-.19-.79-.41-1.58-.66-2.36l-2.26.72c.23.73.44,1.47.62,2.2Z"/><path class="cls-1" d="M42.47.45Q41.26.26,40,.15l-.21,2.36c.76.07,1.52.16,2.27.28Z"/><path class="cls-1" d="M33,2.57,32.71.22c-.81.09-1.63.2-2.42.35L30.7,2.9C31.45,2.77,32.2,2.66,33,2.57Z"/><path class="cls-1" d="M51.82,3.24c-.74-.33-1.5-.65-2.26-.93l-.83,2.22c.72.27,1.43.56,2.12.87Z"/><path class="cls-1" d="M24.1,4.76l-.87-2.2c-.75.3-1.5.62-2.24,1l1,2.14c.69-.33,1.4-.64,2.1-.92Z"/><path class="cls-1" d="M28.46,3.37l-.57-2.3c-.79.2-1.58.42-2.36.67L26.26,4c.72-.24,1.46-.45,2.2-.63Z"/><path class="cls-1" d="M47.24,1.53c-.77-.23-1.57-.44-2.37-.62l-.52,2.31c.74.17,1.49.37,2.21.58Z"/><path class="cls-1" d="M36.68,2.37h.86L37.59,0h-.87c-.55,0-1,0-1.57,0l.1,2.36c.47,0,1,0,1.43,0Z"/></g></g></svg>