<svg xmlns="http://www.w3.org/2000/svg" viewBox="0 0 67.7 90.72"><defs><style>.cls-1{fill:#fbb034;}</style></defs><g id="Layer_2" data-name="Layer 2"><g id="Layer_1-2" data-name="Layer 1"><path class="cls-1" d="M67.36,51.73l-3.62-3.62a1.17,1.17,0,0,0-1.67,0l-.47.47-3.34-3.34V38.71a1.19,1.19,0,0,0-.83-1.13L36.77,31.11a1.17,1.17,0,0,0-1.47,1.47l6.47,20.66a1.18,1.18,0,0,0,1.13.82h6.53l3.34,3.35-.47.47a1.17,1.17,0,0,0,0,1.67l3.62,3.62a1.18,1.18,0,0,0,1.66,0l9.78-9.78A1.17,1.17,0,0,0,67.36,51.73Zm-17.44,0H43.76L39,36.45l6.82,6.82a3.82,3.82,0,0,0-.44,1.79,3.89,3.89,0,1,0,2.1-3.45l-6.82-6.82L55.9,39.57v6.16a1.14,1.14,0,0,0,.35.83l3.68,3.69-5.49,5.49-3.69-3.69A1.17,1.17,0,0,0,49.92,51.71Zm-.67-8.18a1.51,1.51,0,0,1,1.08.45,1.53,1.53,0,1,1-2.16,0A1.51,1.51,0,0,1,49.25,43.53Zm7.5,17.14-2-2,8.1-8.1,2,2Z"/><path class="cls-1" d="M45.94,80.89a4.93,4.93,0,0,0-4.72,3.5A39.27,39.27,0,0,1,6.42,50a4.92,4.92,0,0,0,0-9.36A39.29,39.29,0,0,1,41.22,6.32a4.92,4.92,0,1,0-.06-2.58H17.72v-1a1.17,1.17,0,0,0-1.18-1.17H12.27a1.17,1.17,0,0,0-1.18,1.17V7.05a1.18,1.18,0,0,0,1.18,1.18h4.27a1.18,1.18,0,0,0,1.18-1.18v-1H31.61A41.6,41.6,0,0,0,6,32V23.07H7a1.17,1.17,0,0,0,1.17-1.18V17.62A1.17,1.17,0,0,0,7,16.45H2.68A1.17,1.17,0,0,0,1.5,17.62v4.27a1.18,1.18,0,0,0,1.18,1.18h1V40.61a4.91,4.91,0,0,0,0,9.49V67.65h-1A1.17,1.17,0,0,0,1.5,68.82v4.27a1.18,1.18,0,0,0,1.18,1.18H7a1.17,1.17,0,0,0,1.17-1.18V68.82A1.17,1.17,0,0,0,7,67.65H6V58.71A41.66,41.66,0,0,0,31.63,84.63H17.72v-1a1.18,1.18,0,0,0-1.18-1.18H12.27a1.18,1.18,0,0,0-1.18,1.18v4.27a1.17,1.17,0,0,0,1.18,1.17h4.27a1.17,1.17,0,0,0,1.18-1.17V87H41.16a4.92,4.92,0,1,0,4.78-6.09Zm0-78.54a2.57,2.57,0,1,1-2.57,2.57A2.57,2.57,0,0,1,45.94,2.35Zm-43.59,43a2.57,2.57,0,1,1,2.57,2.56A2.56,2.56,0,0,1,2.35,45.36Zm43.59,43A2.57,2.57,0,1,1,48.5,85.8,2.57,2.57,0,0,1,45.94,88.37Z"/></g></g></svg>