<svg xmlns="http://www.w3.org/2000/svg" xmlns:xlink="http://www.w3.org/1999/xlink" viewBox="0 0 70.36 67.26"><defs><style>.cls-1{fill:url(#linear-gradient);}.cls-2{fill:url(#linear-gradient-2);}</style><linearGradient id="linear-gradient" y1="34.77" x2="15.62" y2="34.77" gradientUnits="userSpaceOnUse"><stop offset="0" stop-color="#e749a0"/><stop offset="1" stop-color="#e749a0"/></linearGradient><linearGradient id="linear-gradient-2" x1="22.64" y1="33.63" x2="70.36" y2="33.63" xlink:href="#linear-gradient"/></defs><g id="Layer_2" data-name="Layer 2"><g id="Layer_1-2" data-name="Layer 1"><path class="cls-1" d="M.85,66.26H14.76a.85.85,0,0,0,.86-.85V4.13a.86.86,0,0,0-.86-.86H.85A.86.86,0,0,0,0,4.13V65.41A.85.85,0,0,0,.85,66.26Z"/><path class="cls-2" d="M42.49,67.26A16.75,16.75,0,0,0,56,61.09l.42,4.4a.86.86,0,0,0,.85.77H69.5a.85.85,0,0,0,.86-.85.88.88,0,0,0,0-.16c-.17-3-.35-8.17-.35-13.11V.85A.85.85,0,0,0,69.14,0H55.31a.85.85,0,0,0-.85.85v22C52,20.43,48.09,19.09,43.4,19.09a19.56,19.56,0,0,0-14,5.8c-4.49,4.52-6.84,11-6.79,18.7C22.64,57.31,31,67.26,42.49,67.26ZM47,54.56c-5.31,0-8.6-4.38-8.6-11.43,0-5.43,2.27-11.78,8.69-11.78a7.47,7.47,0,0,1,7.25,6.11,22,22,0,0,1,.17,2.31v5.82a11,11,0,0,1-.33,3s0,0,0,.05A7.24,7.24,0,0,1,47,54.56Z"/></g></g></svg>