<svg xmlns="http://www.w3.org/2000/svg" viewBox="0 0 49.08 78.48"><g id="Layer_2" data-name="Layer 2"><g id="Layer_1-2" data-name="Layer 1"><path d="M24.54,0A13.77,13.77,0,0,0,10.79,13.75v27a13.75,13.75,0,0,0,27.5.09V13.75A13.77,13.77,0,0,0,24.54,0Zm8,40.86a8,8,0,0,1-16-.09v-27a8,8,0,0,1,16,0Z"/><rect x="21.67" y="62.73" width="5.73" height="12.89"/><path d="M32.08,72.75H17a2.87,2.87,0,1,0,0,5.73H32.08a2.87,2.87,0,1,0,0-5.73Z"/><path d="M46.21,36a2.86,2.86,0,0,0-2.86,2.86v2.29a18.81,18.81,0,0,1-37.62,0V38.86a2.87,2.87,0,0,0-5.73,0v2.29a24.54,24.54,0,0,0,49.08,0V38.86A2.87,2.87,0,0,0,46.21,36Z"/></g></g></svg>