<svg xmlns="http://www.w3.org/2000/svg" viewBox="0 0 72.41 66.75"><defs><style>.cls-1{fill:#d54062;}</style></defs><g id="Layer_2" data-name="Layer 2"><g id="Layer_1-2" data-name="Layer 1"><path class="cls-1" d="M66.58,26.3a11,11,0,0,0,2.9-2.81,16.4,16.4,0,0,0,2.93-9.63,16.4,16.4,0,0,0-2.93-9.63A9.34,9.34,0,0,0,61.94,0H10.46A9.34,9.34,0,0,0,2.92,4.23,16.47,16.47,0,0,0,0,13.86a16.47,16.47,0,0,0,2.92,9.63,11,11,0,0,0,2.9,2.81,11.2,11.2,0,0,0-2.9,2.82A16.47,16.47,0,0,0,0,38.75a16.47,16.47,0,0,0,2.92,9.63,9.34,9.34,0,0,0,7.54,4.23H18.1V65.34a1.41,1.41,0,0,0,1.42,1.41H34.25a1.42,1.42,0,0,0,0-2.83H20.93V38.75A16.47,16.47,0,0,0,18,29.12a12.63,12.63,0,0,0-1.18-1.4H61.94a6.64,6.64,0,0,1,5.26,3.06,13.64,13.64,0,0,1,2.38,8V63.92H48.12a1.42,1.42,0,1,0,0,2.83H71a1.42,1.42,0,0,0,1.42-1.41V38.75a16.4,16.4,0,0,0-2.93-9.63A11.2,11.2,0,0,0,66.58,26.3ZM18.1,49.78H16.83A12.63,12.63,0,0,0,18,48.38l.09-.13Zm0-11a13.57,13.57,0,0,1-2.38,8,6.63,6.63,0,0,1-5.26,3.06,6.63,6.63,0,0,1-5.25-3.06,13.57,13.57,0,0,1-2.38-8,13.57,13.57,0,0,1,2.38-8,6.63,6.63,0,0,1,5.25-3.06,6.63,6.63,0,0,1,5.26,3.06A13.57,13.57,0,0,1,18.1,38.75ZM15.72,21.83a6.63,6.63,0,0,1-5.26,3.06,6.63,6.63,0,0,1-5.25-3.06,13.57,13.57,0,0,1-2.38-8,13.57,13.57,0,0,1,2.38-8,6.63,6.63,0,0,1,5.25-3.06,6.63,6.63,0,0,1,5.26,3.06,13.57,13.57,0,0,1,2.38,8A13.57,13.57,0,0,1,15.72,21.83Zm46.22,3.06H16.83A12.63,12.63,0,0,0,18,23.49a16.47,16.47,0,0,0,2.92-9.63A16.47,16.47,0,0,0,18,4.23a12.63,12.63,0,0,0-1.18-1.4H61.94A6.64,6.64,0,0,1,67.2,5.89a13.64,13.64,0,0,1,2.38,8,13.64,13.64,0,0,1-2.38,8A6.64,6.64,0,0,1,61.94,24.89Z"/></g></g></svg>