<svg xmlns="http://www.w3.org/2000/svg" viewBox="0 0 71.04 58.69"><defs><style>.cls-1{fill:#c1272d;}</style></defs><g id="Layer_2" data-name="Layer 2"><g id="Layer_1-2" data-name="Layer 1"><path class="cls-1" d="M17,9.27A7.72,7.72,0,1,0,24.71,17,7.72,7.72,0,0,0,17,9.27Zm0,12.35A4.64,4.64,0,1,1,21.62,17,4.64,4.64,0,0,1,17,21.62Z"/><path class="cls-1" d="M69.5,24.71H38.61a1.54,1.54,0,0,0-1.55,1.54v4.62H30.89V26.72A16.82,16.82,0,0,0,34,17,17,17,0,0,0,0,17a16.7,16.7,0,0,0,3.09,9.73V55.6a3.09,3.09,0,0,0,3.09,3.09H27.8a3.1,3.1,0,0,0,3.09-3.09V46.33h6.17V51a1.54,1.54,0,0,0,1.55,1.55H69.5A1.54,1.54,0,0,0,71,51V26.25A1.54,1.54,0,0,0,69.5,24.71ZM6.18,55.6V30.07a16.92,16.92,0,0,0,1.38,1c.14.1.28.18.42.27.37.23.75.45,1.14.65l.47.25c.5.24,1,.46,1.52.65l.1,0a16.26,16.26,0,0,0,1.68.51l.5.11c.43.1.86.17,1.3.23a4.34,4.34,0,0,0,.52.07,1.81,1.81,0,0,0,.23,0v14a1.55,1.55,0,1,0,3.09,0v-14l.24,0,.52-.07c.43-.06.87-.14,1.3-.23l.49-.11c.57-.15,1.14-.31,1.69-.51l.1,0c.51-.19,1-.42,1.51-.66.16-.07.32-.16.47-.24.39-.2.76-.42,1.13-.65l.44-.27a16.92,16.92,0,0,0,1.38-1V55.6ZM28.11,25.31A14,14,0,0,1,17,30.89a14.38,14.38,0,0,1-1.62-.1,14,14,0,0,1-9.5-5.48A13.7,13.7,0,0,1,3.09,17a13.9,13.9,0,0,1,27.8,0A13.7,13.7,0,0,1,28.11,25.31Zm9,17.93H30.89V34h6.17ZM68,49.42H40.15V27.8H68Z"/></g></g></svg>