<svg xmlns="http://www.w3.org/2000/svg" viewBox="0 0 68.88 68.88"><defs><style>.cls-1{fill:#f0eed3;}.cls-2{fill:#9df9f6;}.cls-3{fill:#f98f8f;}</style></defs><g id="Layer_2" data-name="Layer 2"><g id="Layer_1-2" data-name="Layer 1"><path class="cls-1" d="M18.16,0H2A2,2,0,0,0,0,2H0V16.14H20.18V2a2,2,0,0,0-2-2Z"/><path class="cls-2" d="M20.18,34.44V20.18H0V34.44A34.65,34.65,0,0,0,32.42,68.88V48.36A14.22,14.22,0,0,1,20.18,34.44Z"/><path class="cls-1" d="M66.86,0H50.58a2,2,0,0,0-2,2h0V16.14H68.88V2a2,2,0,0,0-2-2Z"/><path class="cls-3" d="M48.57,20.18V34.44A14.09,14.09,0,0,1,36.46,48.36V68.88A34.65,34.65,0,0,0,68.88,34.44V20.18Z"/></g></g></svg>