<svg xmlns="http://www.w3.org/2000/svg" viewBox="0 0 74.83 74.82"><defs><style>.cls-1{fill:#b23121;}</style></defs><g id="Layer_2" data-name="Layer 2"><g id="Layer_1-2" data-name="Layer 1"><path class="cls-1" d="M28.93,4.68H18.41a1.46,1.46,0,0,0,0,2.91H28.93a1.46,1.46,0,1,0,0-2.91Z"/><path class="cls-1" d="M24.72,66.74a1.47,1.47,0,1,0,.42,1A1.48,1.48,0,0,0,24.72,66.74Z"/><path class="cls-1" d="M65.42,46.44l-5.37-9.31a6.59,6.59,0,0,0,.35-9.3A6.57,6.57,0,0,0,53.63,26L48.25,16.7a1.46,1.46,0,0,0-2-.53,1.51,1.51,0,0,0-.43.37L29.09,37.9l-7,4.06a8.39,8.39,0,0,0,8.3,14.59l.09,0,.83-.49,2.92,5.06H2.92V12.28h41.5v.42a1.46,1.46,0,1,0,2.92,0v-7A5.75,5.75,0,0,0,41.61,0H5.74A5.74,5.74,0,0,0,0,5.74V69.08a5.75,5.75,0,0,0,5.74,5.74H41.61a5.74,5.74,0,0,0,5.73-5.74v-18l17-2.42A1.46,1.46,0,0,0,65.61,47,1.34,1.34,0,0,0,65.42,46.44ZM2.92,5.74A2.82,2.82,0,0,1,5.74,2.92H41.61a2.81,2.81,0,0,1,2.81,2.81V9.35H2.92Zm53.6,23a3.67,3.67,0,0,1,2.59,4.49,3.78,3.78,0,0,1-.59,1.23l-3.36-5.82A3.67,3.67,0,0,1,56.52,28.77ZM29,54a5.47,5.47,0,0,1-5.47-9.47l6-3.47L35,50.5Zm4.82.6L36.47,53l3.45,6-2.63,1.52ZM44.42,69.09a2.83,2.83,0,0,1-2.81,2.82H5.74a2.83,2.83,0,0,1-2.82-2.82h0V64h41.5v5.09Zm0-8H42.21l.44-.27a1.46,1.46,0,0,0,.54-2h0l-3.83-6.64,5.07-.72ZM37.78,49.46l-6-10.31L42.45,25.58,54.84,47ZM58,46.6,44.4,23.11,46.79,20l15,26Z"/><path class="cls-1" d="M74.64,21.35a1.48,1.48,0,0,0-2-.53h0L65.47,25a1.48,1.48,0,0,0-.53,2,1.45,1.45,0,0,0,2,.53l7.17-4.13a1.46,1.46,0,0,0,.54-2Z"/><path class="cls-1" d="M61.41,14.94a1.46,1.46,0,0,0-1.79,1h0l-1,3.9a1.45,1.45,0,0,0,1,1.78h0a1.58,1.58,0,0,0,.38,0,1.46,1.46,0,0,0,1.41-1.09l1-3.9a1.46,1.46,0,0,0-1-1.79Z"/><path class="cls-1" d="M72.57,34.05l-4-1.08a1.47,1.47,0,0,0-.76,2.83l4,1.08a1.65,1.65,0,0,0,.38,0,1.46,1.46,0,0,0,.38-2.88Z"/></g></g></svg>