<svg xmlns="http://www.w3.org/2000/svg" viewBox="0 0 84.37 66.23"><defs><style>.cls-1{fill:#c1c1bd;}</style></defs><g id="Layer_2" data-name="Layer 2"><g id="Layer_1-2" data-name="Layer 1"><path class="cls-1" d="M28.44,16.3,11.63,33.12,28.44,49.93a4.82,4.82,0,0,1-6.81,6.81L1.41,36.52a4.82,4.82,0,0,1,0-6.81L21.63,9.49a4.82,4.82,0,1,1,6.81,6.81ZM83,29.71,62.74,9.49a4.82,4.82,0,0,0-6.81,6.81L72.74,33.12,55.93,49.93a4.82,4.82,0,0,0,6.81,6.81L83,36.52a4.82,4.82,0,0,0,0-6.81ZM50.6.15a4.81,4.81,0,0,0-5.86,3.47L30.29,60.21a4.82,4.82,0,0,0,3.47,5.86,4.55,4.55,0,0,0,1.2.16,4.82,4.82,0,0,0,4.66-3.63L54.07,6A4.81,4.81,0,0,0,50.6.15Z"/></g></g></svg>