<svg id="Flat" height="512" viewBox="0 0 512 512" width="512" xmlns="http://www.w3.org/2000/svg"><rect fill="#6a7073" height="464" rx="32" width="384" x="64" y="24"/><path d="m96 56h320v368h-320z" fill="#e9eef2"/><path d="m192 168-32-24-32 24v-112h64z" fill="#eb423f"/><g fill="#c3c6c7"><path d="m384 176h-160a8 8 0 0 1 0-16h160a8 8 0 0 1 0 16z"/><path d="m384 208h-256a8 8 0 0 1 0-16h256a8 8 0 0 1 0 16z"/><path d="m192 240h-64a8 8 0 0 1 0-16h64a8 8 0 0 1 0 16z"/><path d="m304 240h-80a8 8 0 0 1 0-16h80a8 8 0 0 1 0 16z"/><path d="m384 240h-48a8 8 0 0 1 0-16h48a8 8 0 0 1 0 16z"/><path d="m384 336h-64a8 8 0 0 1 0-16h64a8 8 0 0 1 0 16z"/><path d="m288 336h-80a8 8 0 0 1 0-16h80a8 8 0 0 1 0 16z"/><path d="m176 336h-48a8 8 0 0 1 0-16h48a8 8 0 0 1 0 16z"/><path d="m256 272h-128a8 8 0 0 1 0-16h128a8 8 0 0 1 0 16z"/><path d="m368 368h-240a8 8 0 0 1 0-16h240a8 8 0 0 1 0 16z"/><path d="m384 272h-96a8 8 0 0 1 0-16h96a8 8 0 0 1 0 16z"/><path d="m184 304h-56a8 8 0 0 1 0-16h56a8 8 0 0 1 0 16z"/><path d="m184 400h-56a8 8 0 0 1 0-16h56a8 8 0 0 1 0 16z"/><path d="m384 304h-168a8 8 0 0 1 0-16h168a8 8 0 0 1 0 16z"/><path d="m256 400h-40a8 8 0 0 1 0-16h40a8 8 0 0 1 0 16z"/><path d="m288 112h-64a8 8 0 0 1 0-16h64a8 8 0 0 1 0 16z"/><path d="m384 144h-160a8 8 0 0 1 0-16h160a8 8 0 0 1 0 16z"/></g></svg>