<svg xmlns="http://www.w3.org/2000/svg" viewBox="0 0 75.07 75.07"><defs><style>.cls-1{fill:#ea4c89;}</style></defs><g id="Layer_2" data-name="Layer 2"><g id="Layer_1-2" data-name="Layer 1"><path class="cls-1" d="M37.54,0A37.54,37.54,0,1,0,75.07,37.54,37.62,37.62,0,0,0,37.54,0ZM63,16.35A32.93,32.93,0,0,1,70.66,37a46.93,46.93,0,0,0-19-.26c-1.72.32-3.45.72-5.17,1.2q-.86-2.34-1.83-4.63c-.65-1.56-1.35-3.09-2.08-4.6C50.46,25.7,59,21.2,63,16.35ZM37.54,4.4a33,33,0,0,1,22.38,8.73c-2.3,3.14-8.86,7.71-19.38,11.65A95.78,95.78,0,0,0,27.37,6,32.86,32.86,0,0,1,37.54,4.4ZM23,7.76A91.61,91.61,0,0,1,36.35,26.24c-11,3.54-22,5-31.15,4.05A33.24,33.24,0,0,1,23,7.76ZM4.4,37.54c0-1,0-1.94.13-2.89A60.47,60.47,0,0,0,10.8,35,89.79,89.79,0,0,0,38.4,30.2a98.68,98.68,0,0,1,3.88,9.08,62,62,0,0,0-10.62,5c-8.25,4.91-14.28,11.22-16.78,17.4A33,33,0,0,1,4.4,37.54ZM37.54,70.67a33,33,0,0,1-19-6C20.17,59,25.82,52.88,33.91,48.07a56.73,56.73,0,0,1,9.8-4.6,103.12,103.12,0,0,1,4.65,25.38A32.94,32.94,0,0,1,37.54,70.67ZM52.65,67a106.15,106.15,0,0,0-4.76-24.87c7.13-2,15-2.62,22.55-.67A33.23,33.23,0,0,1,52.65,67Z"/></g></g></svg>