<svg xmlns="http://www.w3.org/2000/svg" viewBox="0 0 76.43 69.71"><defs><style>.cls-1{fill:#f4dc4d;}.cls-2{fill:#a0ed83;}.cls-3{fill:#86bff2;}</style></defs><g id="Layer_2" data-name="Layer 2"><g id="Layer_1-2" data-name="Layer 1"><path class="cls-1" d="M45.08,1.9A14,14,0,0,0,25.94,7L1.9,48.66C-4.3,59.41,5.64,72.43,17.67,69.21a14,14,0,0,0,8.51-6.53L50.21,21A14,14,0,0,0,45.08,1.9Z"/><path class="cls-2" d="M27.58,52a14,14,0,0,0-17.17-9.9C-1.62,45.36-3.71,61.61,7,67.81S30.82,64.14,27.58,52Z"/><path class="cls-3" d="M74.55,48.66,50.51,7A13.92,13.92,0,0,0,42,.5C30-2.72,20,10.3,26.24,21l24,41.64a14,14,0,1,0,24.27-14Z"/><path class="cls-2" d="M27.58,52a14,14,0,0,0-17.17-9.9C-1.62,45.36-3.71,61.61,7,67.81S30.82,64.14,27.58,52Z"/></g></g></svg>