<svg xmlns="http://www.w3.org/2000/svg" viewBox="0 0 73.68 73.68"><defs><style>.cls-1{fill:#d44638;}</style></defs><g id="Layer_2" data-name="Layer 2"><g id="Layer_1-2" data-name="Layer 1"><path class="cls-1" d="M36.84,0a36.84,36.84,0,0,0,0,73.68,2.75,2.75,0,0,0,0-5.5A31.34,31.34,0,1,1,68.18,36.84v8.52a5.78,5.78,0,0,1-11.55,0V36.84A19.82,19.82,0,1,0,52,49.6a11.27,11.27,0,0,0,21.72-4.24V36.84A36.89,36.89,0,0,0,36.84,0Zm0,51.13A14.29,14.29,0,1,1,51.13,36.84,14.31,14.31,0,0,1,36.84,51.13Z"/></g></g></svg>