<svg xmlns="http://www.w3.org/2000/svg" xmlns:xlink="http://www.w3.org/1999/xlink" viewBox="0 0 159.84 140.97"><defs><style>.cls-1{opacity:0.67;}.cls-2{fill:url(#linear-gradient);}.cls-3{fill:url(#linear-gradient-2);}.cls-4{fill:url(#linear-gradient-3);}.cls-5{fill:url(#linear-gradient-4);}.cls-6{fill:url(#linear-gradient-5);}.cls-7{fill:url(#linear-gradient-6);}.cls-8{fill:url(#linear-gradient-7);}.cls-9{fill:url(#linear-gradient-8);}</style><linearGradient id="linear-gradient" x1="43.71" y1="85.2" x2="65.99" y2="85.2" gradientUnits="userSpaceOnUse"><stop offset="0" stop-color="#155a95"/><stop offset="1" stop-color="#15965c"/></linearGradient><linearGradient id="linear-gradient-2" x1="94.34" y1="85.2" x2="116.62" y2="85.2" xlink:href="#linear-gradient"/><linearGradient id="linear-gradient-3" x1="71.5" y1="85.38" x2="87.38" y2="85.38" xlink:href="#linear-gradient"/><linearGradient id="linear-gradient-4" x1="0" y1="70.49" x2="159.2" y2="70.49" xlink:href="#linear-gradient"/><linearGradient id="linear-gradient-5" x1="0.49" y1="40.1" x2="159.84" y2="40.1" xlink:href="#linear-gradient"/><linearGradient id="linear-gradient-6" x1="37.11" y1="21.26" x2="53.76" y2="21.26" xlink:href="#linear-gradient"/><linearGradient id="linear-gradient-7" x1="11.53" y1="21.18" x2="28.18" y2="21.18" xlink:href="#linear-gradient"/><linearGradient id="linear-gradient-8" x1="62.69" y1="21.34" x2="79.34" y2="21.34" xlink:href="#linear-gradient"/></defs><g id="Layer_2" data-name="Layer 2"><g id="Layer_1-2" data-name="Layer 1"><g class="cls-1"><path class="cls-2" d="M63.36,102.33a2.62,2.62,0,0,1-1.7-.63l-17-14.5a2.63,2.63,0,0,1,0-4l17-14.5a2.63,2.63,0,1,1,3.41,4L50.4,85.2,65.07,97.69a2.63,2.63,0,0,1-1.71,4.64Z"/><path class="cls-3" d="M97,102.33a2.6,2.6,0,0,1-2-.93,2.63,2.63,0,0,1,.29-3.71L109.93,85.2,95.26,72.71a2.63,2.63,0,0,1,3.41-4l17,14.5a2.63,2.63,0,0,1,0,4l-17,14.5A2.62,2.62,0,0,1,97,102.33Z"/><path class="cls-4" d="M74.14,113.2A2.64,2.64,0,0,1,71.56,110L82.17,59.65a2.63,2.63,0,0,1,5.15,1.09L76.71,111.11A2.63,2.63,0,0,1,74.14,113.2Z"/><path class="cls-5" d="M141.54,141H17.66A17.66,17.66,0,0,1,0,123.31V17.66A17.66,17.66,0,0,1,17.66,0H141.54A17.66,17.66,0,0,1,159.2,17.66V123.31A17.66,17.66,0,0,1,141.54,141ZM6.08,17.26V122.49a12.41,12.41,0,0,0,12.4,12.41H141.94a12.41,12.41,0,0,0,12.4-12.41V17.26a12.4,12.4,0,0,0-12.4-12.4H18.48A12.4,12.4,0,0,0,6.08,17.26Z"/><path class="cls-6" d="M157.21,42.53H3.12A2.58,2.58,0,0,1,.56,40.69a2.49,2.49,0,0,1,2.56-3H157.21a2.59,2.59,0,0,1,2.56,1.85A2.49,2.49,0,0,1,157.21,42.53Z"/><path class="cls-7" d="M45.44,29.59a8.33,8.33,0,1,1,8.32-8.33A8.34,8.34,0,0,1,45.44,29.59Zm0-11.39a3.07,3.07,0,1,0,3.06,3.06A3.07,3.07,0,0,0,45.44,18.2Z"/><path class="cls-8" d="M19.86,29.51a8.33,8.33,0,1,1,8.32-8.33A8.34,8.34,0,0,1,19.86,29.51Zm0-11.39a3.06,3.06,0,1,0,3.06,3.06A3.07,3.07,0,0,0,19.86,18.12Z"/><path class="cls-9" d="M71,29.67a8.33,8.33,0,1,1,8.32-8.33A8.34,8.34,0,0,1,71,29.67Zm0-11.39a3.07,3.07,0,1,0,3.06,3.06A3.06,3.06,0,0,0,71,18.28Z"/></g></g></g></svg>