<svg xmlns="http://www.w3.org/2000/svg" xmlns:xlink="http://www.w3.org/1999/xlink" viewBox="0 0 156.3 148.32"><defs><style>.cls-1{opacity:0.67;}.cls-2{fill:url(#linear-gradient);}.cls-3{fill:url(#linear-gradient-2);}.cls-4{fill:url(#linear-gradient-3);}.cls-5{fill:url(#linear-gradient-4);}.cls-6{fill:url(#linear-gradient-5);}.cls-7{fill:url(#linear-gradient-6);}</style><linearGradient id="linear-gradient" x1="37.23" y1="91.45" x2="43.34" y2="91.45" gradientUnits="userSpaceOnUse"><stop offset="0" stop-color="#155a95"/><stop offset="1" stop-color="#15965c"/></linearGradient><linearGradient id="linear-gradient-2" x1="0" y1="77.79" x2="128.88" y2="77.79" xlink:href="#linear-gradient"/><linearGradient id="linear-gradient-3" x1="13.03" y1="99.49" x2="32.76" y2="99.49" xlink:href="#linear-gradient"/><linearGradient id="linear-gradient-4" x1="133.18" y1="20.75" x2="156.3" y2="20.75" xlink:href="#linear-gradient"/><linearGradient id="linear-gradient-5" x1="134.34" y1="46.34" x2="152.24" y2="46.34" xlink:href="#linear-gradient"/><linearGradient id="linear-gradient-6" x1="117.07" y1="8.95" x2="126.34" y2="8.95" xlink:href="#linear-gradient"/></defs><g id="Layer_2" data-name="Layer 2"><g id="Layer_1-2" data-name="Layer 1"><g class="cls-1"><path class="cls-2" d="M41.81,94.09A3,3,0,1,0,37.64,93,3.06,3.06,0,0,0,41.81,94.09Z"/><path class="cls-3" d="M29.3,115.59l15.37,26.63A12.21,12.21,0,1,0,65.82,130l-9.15-15.87,7.93-4.58a3,3,0,0,0,1.11-4.17l-4-6.87,58.48-11.47a9.16,9.16,0,0,0,7.42-13.72L117.49,55.76,124,45.94a3.07,3.07,0,0,0,.09-3.21L118,32.15a3.05,3.05,0,0,0-2.83-1.52l-11.74.71L94,15a20.48,20.48,0,0,0-8.38-7.41,3.17,3.17,0,0,0-1.41-.38,9.08,9.08,0,0,0-7.71,4.22L36.61,62.27l-25.92,15A21.37,21.37,0,0,0,29.3,115.59Zm31.24,17A6.11,6.11,0,0,1,50,138.74L34.7,112.3l10.57-6.1C62.94,136.8,60.25,132.15,60.54,132.64Zm-6.93-24.21-3-5.29,5.29-3,3,5.29Zm60-72,4.22,7.31-3.76,5.7-7.27-12.6Zm-32-22a3,3,0,0,1,2.64-1.46,3,3,0,0,1,2.6,1.52L122.35,76a3,3,0,0,1-2.57,4.57,11.5,11.5,0,0,0-1.67.29L80.55,15.76C81.34,14.75,81.44,14.65,81.6,14.39Zm-5.11,6.55,35.28,61.12L58.52,92.5l-16.2-28ZM8.15,103A15.25,15.25,0,0,1,13.74,82.1L37.53,68.37,52.79,94.8,29,108.54A15.28,15.28,0,0,1,8.15,103Z"/><path class="cls-4" d="M32.35,96a3.06,3.06,0,0,0-4.17-1.12L22.9,98a3.06,3.06,0,0,1-4.17-1.12,3.05,3.05,0,0,0-5.29,3.05A9.17,9.17,0,0,0,26,103.25l5.29-3A3,3,0,0,0,32.35,96Z"/><path class="cls-5" d="M151.76,13.35l-17,9.47a3.06,3.06,0,0,0,3,5.34l17-9.47a3.06,3.06,0,0,0-3-5.34Z"/><path class="cls-6" d="M150,45l-11.8-3.16a3.05,3.05,0,1,0-1.58,5.9l11.8,3.16A3.05,3.05,0,1,0,150,45Z"/><path class="cls-7" d="M120.34,2.26l-3.17,11.8a3.05,3.05,0,0,0,5.9,1.58l3.16-11.8a3,3,0,1,0-5.89-1.58Z"/></g></g></g></svg>