<svg xmlns="http://www.w3.org/2000/svg" viewBox="0 0 1603.61 478.07"><defs><style>.cls-1,.cls-2{fill:none;stroke:#000;stroke-miterlimit:10;stroke-width:3px;}.cls-2{stroke-dasharray:11.96 9.97;}</style></defs><g id="Layer_2" data-name="Layer 2"><g id="Layer_1-2" data-name="Layer 1"><line class="cls-1" x1="1.5" y1="1.5" x2="1.5" y2="7.5"/><path class="cls-2" d="M1.5,17.47V275.58c0,111,90,201,201,201h0c111,0,201-90,201-201V203.71C403.48,92,494,1.5,605.69,1.5h0C717.37,1.5,807.9,92,807.9,203.71V276.8c0,110.33,89.44,199.77,199.77,199.77h0c110.33,0,199.77-89.44,199.77-199.77v-78c0-109,88.35-197.34,197.34-197.34h0c109,0,197.33,88.35,197.33,197.34V465.58"/><line class="cls-1" x1="1602.11" y1="470.57" x2="1602.11" y2="476.57"/></g></g></svg>