<svg xmlns="http://www.w3.org/2000/svg" viewBox="0 0 81.87 63.28"><defs><style>.cls-1{fill:#8bc3fc;}</style></defs><g id="Layer_2" data-name="Layer 2"><g id="Layer_1-2" data-name="Layer 1"><path class="cls-1" d="M15.18,61.55V40.94c1.1.11,2.39.17,3.81.17,8.62,0,15.59-2.28,20.16-6.58C42.89,31,45,25.68,45,19.61A18.38,18.38,0,0,0,38.2,5C34,1.64,27.79,0,19.26,0A115.07,115.07,0,0,0,.7,1.26a.85.85,0,0,0-.7.83V61.55a.85.85,0,0,0,.84.84h13.5A.85.85,0,0,0,15.18,61.55Zm0-32.79V12.33A25.61,25.61,0,0,1,20,12c6.23,0,9.8,2.92,9.8,8,0,5.63-4.06,9-10.87,9A25.26,25.26,0,0,1,15.18,28.76Z"/><path class="cls-1" d="M69.42,34c-5.56-2-6.5-2.87-6.5-4.21,0-2.38,2.72-2.74,4.34-2.74a20.59,20.59,0,0,1,9.08,2.4.84.84,0,0,0,1.21-.53L80,19.56a.84.84,0,0,0-.44-1A30,30,0,0,0,66.82,16c-11,0-18.64,6.23-18.64,15.13-.07,4.35,2.12,10.29,13,14,5.28,1.76,5.86,2.67,5.86,4.21,0,.7,0,2.82-5,2.82A25.7,25.7,0,0,1,50.8,48.94a.85.85,0,0,0-.76-.06.83.83,0,0,0-.49.57L47.14,59.2a.83.83,0,0,0,.41.94c3.69,2,9,3.14,14.53,3.14,12.21,0,19.79-5.73,19.79-15C81.77,41.36,77.93,37,69.42,34Z"/></g></g></svg>