<svg xmlns="http://www.w3.org/2000/svg" xmlns:xlink="http://www.w3.org/1999/xlink" viewBox="0 0 68.34 68.34"><defs><style>.cls-1{fill:url(#linear-gradient);}.cls-2{fill:url(#linear-gradient-3);}</style><linearGradient id="linear-gradient" x1="-619.83" y1="-1266.92" x2="-619.83" y2="-1334.53" gradientTransform="translate(654 1335.06)" gradientUnits="userSpaceOnUse"><stop offset="0" stop-color="#e09b3d"/><stop offset="0.3" stop-color="#c74c4d"/><stop offset="0.6" stop-color="#c21975"/><stop offset="1" stop-color="#7024c4"/></linearGradient><linearGradient id="linear-gradient-3" x1="-602.12" y1="-1266.92" x2="-602.12" y2="-1334.53" xlink:href="#linear-gradient"/></defs><g id="Layer_2" data-name="Layer 2"><g id="Layer_1-2" data-name="Layer 1"><path class="cls-1" d="M48,0H20.36A20.38,20.38,0,0,0,0,20.36V48A20.38,20.38,0,0,0,20.36,68.34H48A20.38,20.38,0,0,0,68.34,48V20.36A20.38,20.38,0,0,0,48,0ZM61.46,48A13.47,13.47,0,0,1,48,61.46H20.36A13.48,13.48,0,0,1,6.87,48V20.36A13.49,13.49,0,0,1,20.36,6.87H48A13.48,13.48,0,0,1,61.46,20.36V48Z"/><path class="cls-1" d="M34.17,16.49A17.68,17.68,0,1,0,51.84,34.17,17.7,17.7,0,0,0,34.17,16.49Zm0,28.48A10.8,10.8,0,1,1,45,34.17,10.81,10.81,0,0,1,34.17,45Z"/><circle class="cls-2" cx="51.88" cy="16.63" r="4.24"/></g></g></svg>