<svg xmlns="http://www.w3.org/2000/svg" xmlns:xlink="http://www.w3.org/1999/xlink" viewBox="0 0 98.48 98.48"><defs><style>.cls-1{fill:url(#linear-gradient);}.cls-2{fill:url(#linear-gradient-2);}</style><linearGradient id="linear-gradient" y1="49.24" x2="98.48" y2="49.24" gradientUnits="userSpaceOnUse"><stop offset="0" stop-color="#155a95"/><stop offset="1" stop-color="#15965c"/></linearGradient><linearGradient id="linear-gradient-2" x1="31.77" y1="49.24" x2="66.71" y2="49.24" xlink:href="#linear-gradient"/></defs><g id="Layer_2" data-name="Layer 2"><g id="Layer_1-2" data-name="Layer 1"><path class="cls-1" d="M96.89,39.71H89.42a40.6,40.6,0,0,0-5-12.15l5.28-5.28a1.58,1.58,0,0,0,0-2.24L78.44,8.81a1.59,1.59,0,0,0-2.25,0l-5.28,5.28a40.65,40.65,0,0,0-12.14-5V1.59A1.59,1.59,0,0,0,57.18,0H41.3a1.59,1.59,0,0,0-1.59,1.59V9.05a41,41,0,0,0-12.14,5L22.28,8.81a1.58,1.58,0,0,0-2.24,0L8.81,20a1.58,1.58,0,0,0,0,2.24l5.28,5.28a40.86,40.86,0,0,0-5,12.15H1.59A1.59,1.59,0,0,0,0,41.3V57.18a1.59,1.59,0,0,0,1.59,1.59H9.05a41.18,41.18,0,0,0,5,12.14L8.81,76.19a1.59,1.59,0,0,0,0,2.25L20,89.67a1.62,1.62,0,0,0,2.24,0l5.28-5.28a40.84,40.84,0,0,0,12.15,5v7.47a1.59,1.59,0,0,0,1.59,1.59H57.18a1.59,1.59,0,0,0,1.59-1.59V89.42a40.65,40.65,0,0,0,12.14-5l5.28,5.28a1.59,1.59,0,0,0,2.25,0L89.67,78.43a1.58,1.58,0,0,0,0-2.24l-5.28-5.28a40.89,40.89,0,0,0,5-12.14h7.47a1.59,1.59,0,0,0,1.59-1.59V41.3A1.59,1.59,0,0,0,96.89,39.71ZM95.3,55.59H88.15a1.6,1.6,0,0,0-1.56,1.27A37.72,37.72,0,0,1,81,70.25a1.58,1.58,0,0,0,.2,2l5.06,5.06-9,9-5.06-5.06a1.58,1.58,0,0,0-2-.2,37.72,37.72,0,0,1-13.39,5.55,1.6,1.6,0,0,0-1.27,1.56V95.3H42.88V88.15a1.6,1.6,0,0,0-1.27-1.56A37.8,37.8,0,0,1,28.22,81a1.58,1.58,0,0,0-2,.2L21.16,86.3l-9-9,5.07-5.07a1.59,1.59,0,0,0,.2-2,37.74,37.74,0,0,1-5.56-13.39,1.59,1.59,0,0,0-1.56-1.27H3.18V42.88h7.14a1.59,1.59,0,0,0,1.56-1.27,37.82,37.82,0,0,1,5.56-13.39,1.59,1.59,0,0,0-.2-2l-5.07-5.06,9-9,5.06,5.07a1.59,1.59,0,0,0,2,.2,37.82,37.82,0,0,1,13.39-5.56,1.59,1.59,0,0,0,1.27-1.56V3.18H55.59v7.14a1.59,1.59,0,0,0,1.27,1.56,37.74,37.74,0,0,1,13.39,5.56,1.59,1.59,0,0,0,2-.2l5.06-5.06,9,9-5.06,5.06a1.58,1.58,0,0,0-.2,2,37.8,37.8,0,0,1,5.55,13.39,1.6,1.6,0,0,0,1.56,1.27H95.3Z"/><path class="cls-2" d="M49.24,31.77A17.47,17.47,0,1,0,66.71,49.24,17.47,17.47,0,0,0,49.24,31.77Zm0,31.76A14.3,14.3,0,1,1,63.53,49.24,14.29,14.29,0,0,1,49.24,63.53Z"/></g></g></svg>