<svg xmlns="http://www.w3.org/2000/svg" xmlns:xlink="http://www.w3.org/1999/xlink" viewBox="0 0 97.92 116.11"><defs><style>.cls-1{fill:url(#linear-gradient);}.cls-2{fill:url(#linear-gradient-2);}.cls-3{fill:url(#linear-gradient-3);}.cls-4{fill:url(#linear-gradient-4);}.cls-5{fill:url(#linear-gradient-5);}</style><linearGradient id="linear-gradient" y1="58.05" x2="97.92" y2="58.05" gradientUnits="userSpaceOnUse"><stop offset="0" stop-color="#155a95"/><stop offset="1" stop-color="#15965c"/></linearGradient><linearGradient id="linear-gradient-2" x1="34.27" y1="37.07" x2="79.04" y2="37.07" xlink:href="#linear-gradient"/><linearGradient id="linear-gradient-3" x1="34.27" y1="65.05" x2="79.04" y2="65.05" xlink:href="#linear-gradient"/><linearGradient id="linear-gradient-4" x1="34.27" y1="79.04" x2="60.85" y2="79.04" xlink:href="#linear-gradient"/><linearGradient id="linear-gradient-5" x1="34.27" y1="51.06" x2="79.04" y2="51.06" xlink:href="#linear-gradient"/></defs><g id="Layer_2" data-name="Layer 2"><g id="Layer_1-2" data-name="Layer 1"><path class="cls-1" d="M92.32,15.39H82.53V5.6A5.61,5.61,0,0,0,76.94,0H5.6A5.62,5.62,0,0,0,0,5.6V95.12a5.62,5.62,0,0,0,5.6,5.6h9.79v9.79a5.61,5.61,0,0,0,5.59,5.6H68.54a16.31,16.31,0,0,0,9.67-3.84L93.84,97.56a14.87,14.87,0,0,0,4.08-9.43V21A5.61,5.61,0,0,0,92.32,15.39ZM15.39,21V96.52H5.6a1.42,1.42,0,0,1-1.4-1.4V5.6A1.42,1.42,0,0,1,5.6,4.2H76.94a1.42,1.42,0,0,1,1.4,1.4v9.79H21A5.61,5.61,0,0,0,15.39,21ZM91,94.5,75.34,109.21a6.9,6.9,0,0,1-1.2.88V97.22a3.5,3.5,0,0,1,3.49-3.5h14A6,6,0,0,1,91,94.5Zm2.75-6.37a7,7,0,0,1-.19,1.4H77.63a7.7,7.7,0,0,0-7.69,7.69v14.52a7.4,7.4,0,0,1-1.4.17H21a1.42,1.42,0,0,1-1.4-1.4V21a1.42,1.42,0,0,1,1.4-1.4H92.32a1.42,1.42,0,0,1,1.4,1.4Z"/><path class="cls-2" d="M76.94,35H36.37a2.1,2.1,0,1,0,0,4.2H76.94a2.1,2.1,0,1,0,0-4.2Z"/><path class="cls-3" d="M76.94,63H36.37a2.1,2.1,0,1,0,0,4.19H76.94a2.1,2.1,0,1,0,0-4.19Z"/><path class="cls-4" d="M58.75,76.94H36.37a2.1,2.1,0,1,0,0,4.19H58.75a2.1,2.1,0,1,0,0-4.19Z"/><path class="cls-5" d="M76.94,49H36.37a2.1,2.1,0,0,0,0,4.2H76.94a2.1,2.1,0,1,0,0-4.2Z"/></g></g></svg>