<svg xmlns="http://www.w3.org/2000/svg" xmlns:xlink="http://www.w3.org/1999/xlink" viewBox="0 0 66.21 122.04"><defs><style>.cls-1{fill:url(#linear-gradient);}</style><linearGradient id="linear-gradient" y1="61.02" x2="66.21" y2="61.02" gradientUnits="userSpaceOnUse"><stop offset="0" stop-color="#155a95"/><stop offset="1" stop-color="#15965c"/></linearGradient></defs><g id="Layer_2" data-name="Layer 2"><g id="Layer_1-2" data-name="Layer 1"><path class="cls-1" d="M63.79,56.84a8.26,8.26,0,0,0-1.46-4.65,8.32,8.32,0,0,0-4.45-15.35H48.13V31.12a21.13,21.13,0,0,0,3.17-2.4.1.1,0,0,0,.05-.07,17.17,17.17,0,0,0,0-23.94A16.7,16.7,0,0,0,45.55,1l-2-.83a2.45,2.45,0,0,0-2.37.26A2.53,2.53,0,0,0,40,2.6v10c0,.36-.16.52-.52.52s-.52-.16-.52-.52V2.6A2.69,2.69,0,0,0,36.24,0a2.49,2.49,0,0,0-.89.19L33.3,1a16.41,16.41,0,0,0-5.83,3.7,16.76,16.76,0,0,0-4.89,12,16.89,16.89,0,0,0,4.89,12c.13.13.24.1.37.36H17.61A17.64,17.64,0,0,0,0,46.7v24A17.79,17.79,0,0,0,17.64,88.58H30.7v2.34a22.28,22.28,0,0,0-3.18,2.4s0,.05-.05.07a17.13,17.13,0,0,0,0,23.94,16.7,16.7,0,0,0,5.8,3.69l2.06.83A2.69,2.69,0,0,0,39,119.44v-10c0-.36.15-.52.52-.52s.52.16.52.52v10a2.53,2.53,0,0,0,1.09,2.15,2.45,2.45,0,0,0,2.37.26l2-.8a16.07,16.07,0,0,0,5.81-3.7,17.15,17.15,0,0,0,0-23.93A13.11,13.11,0,0,0,48.07,91V88.61H52c3.33,0,7.2-3.7,7.2-8.38a8.3,8.3,0,0,0-1.38-4.55,9,9,0,0,0,3.75-7.15A8.2,8.2,0,0,0,60,63.76,8.43,8.43,0,0,0,63.79,56.84ZM31.22,8.35a9.37,9.37,0,0,1,2.6-1.87v6.06a5.72,5.72,0,1,0,11.44,0v-6a16.22,16.22,0,0,1,2.48,1.84,11.89,11.89,0,0,1,0,16.55,12.29,12.29,0,0,1-3.28,2.21,2.6,2.6,0,0,0-1.54,2.37v7.33h-7V29.53a2.58,2.58,0,0,0-1.51-2.37A10,10,0,0,1,31.19,25,11.93,11.93,0,0,1,31.22,8.35ZM47.71,113.66a15.57,15.57,0,0,1-2.47,1.87v-6.06a5.73,5.73,0,0,0-11.45,0v6a10.27,10.27,0,0,1-2.6-1.85,11.88,11.88,0,0,1-.05-16.55,11.4,11.4,0,0,1,3.25-2.21,2.48,2.48,0,0,0,1.48-2.36v-4h7v3.93a2.63,2.63,0,0,0,1.51,2.37,10.73,10.73,0,0,1,3.25,2.18A11.89,11.89,0,0,1,47.71,113.66Zm10.15-65.4H54.71A2.66,2.66,0,0,0,52,50.6a2.61,2.61,0,0,0,2.6,2.86h.08l.18,0a6.41,6.41,0,0,0,1,.16,3.28,3.28,0,0,1,2.76,3.15A3.25,3.25,0,0,1,55.49,60H52.26a2.59,2.59,0,0,0-.47,5.13,4.5,4.5,0,0,1,.68.18,2.38,2.38,0,0,0,.76.13,3.22,3.22,0,0,1,3.12,3.15,3.9,3.9,0,0,1-2,3.14H50a2.57,2.57,0,0,0-.47,5.1A4.12,4.12,0,0,1,50,77a4,4,0,0,0,.75.16,3.35,3.35,0,0,1,2.87,1.74c1.19,2.45-1,4.22-1.67,4.56H17.61A12.43,12.43,0,0,1,5.18,71V46.78A12.45,12.45,0,0,1,17.53,34.24H30.67v2.6H23.86a2.65,2.65,0,0,0-2.68,2.34A2.6,2.6,0,0,0,23.78,42h34A3.19,3.19,0,0,1,61,44.85,3.09,3.09,0,0,1,57.86,48.26Z"/></g></g></svg>