<svg xmlns="http://www.w3.org/2000/svg" xmlns:xlink="http://www.w3.org/1999/xlink" viewBox="0 0 156.17 155.53"><defs><style>.cls-1{opacity:0.67;}.cls-2{fill:url(#linear-gradient);}.cls-3{fill:url(#linear-gradient-2);}.cls-4{fill:url(#linear-gradient-3);}.cls-5{fill:url(#linear-gradient-4);}.cls-6{fill:url(#linear-gradient-5);}.cls-7{fill:url(#linear-gradient-6);}.cls-8{fill:url(#linear-gradient-7);}.cls-9{fill:url(#linear-gradient-8);}.cls-10{fill:url(#linear-gradient-9);}.cls-11{fill:url(#linear-gradient-10);}.cls-12{fill:url(#linear-gradient-11);}.cls-13{fill:url(#linear-gradient-12);}.cls-14{fill:url(#linear-gradient-13);}.cls-15{fill:url(#linear-gradient-14);}.cls-16{fill:url(#linear-gradient-15);}.cls-17{fill:url(#linear-gradient-16);}.cls-18{fill:url(#linear-gradient-17);}.cls-19{fill:url(#linear-gradient-18);}.cls-20{fill:url(#linear-gradient-19);}.cls-21{fill:url(#linear-gradient-20);}</style><linearGradient id="linear-gradient" x1="69.17" y1="117.52" x2="74.77" y2="117.52" gradientUnits="userSpaceOnUse"><stop offset="0" stop-color="#155a95"/><stop offset="1" stop-color="#15965c"/></linearGradient><linearGradient id="linear-gradient-2" x1="61.84" y1="129.64" x2="74.71" y2="129.64" xlink:href="#linear-gradient"/><linearGradient id="linear-gradient-3" x1="81.73" y1="129.62" x2="94.56" y2="129.62" xlink:href="#linear-gradient"/><linearGradient id="linear-gradient-4" x1="56.97" y1="98.04" x2="99.6" y2="98.04" xlink:href="#linear-gradient"/><linearGradient id="linear-gradient-5" x1="69.49" y1="113.17" x2="80.83" y2="113.17" xlink:href="#linear-gradient"/><linearGradient id="linear-gradient-6" x1="38.54" y1="31.7" x2="118.03" y2="31.7" xlink:href="#linear-gradient"/><linearGradient id="linear-gradient-7" x1="44.3" y1="60.24" x2="112.27" y2="60.24" xlink:href="#linear-gradient"/><linearGradient id="linear-gradient-8" x1="69.24" y1="113.34" x2="80.83" y2="113.34" xlink:href="#linear-gradient"/><linearGradient id="linear-gradient-9" x1="75.58" y1="152.45" x2="81.46" y2="152.45" xlink:href="#linear-gradient"/><linearGradient id="linear-gradient-10" x1="74.93" y1="152.45" x2="80.81" y2="152.45" xlink:href="#linear-gradient"/><linearGradient id="linear-gradient-11" x1="75.53" y1="152.75" x2="80.86" y2="152.75" xlink:href="#linear-gradient"/><linearGradient id="linear-gradient-12" x1="75.88" y1="109" x2="81.17" y2="109" xlink:href="#linear-gradient"/><linearGradient id="linear-gradient-13" x1="75.41" y1="109.01" x2="80.71" y2="109.01" xlink:href="#linear-gradient"/><linearGradient id="linear-gradient-14" x1="75.56" y1="112.1" x2="109.75" y2="112.1" xlink:href="#linear-gradient"/><linearGradient id="linear-gradient-15" x1="46.64" y1="112.1" x2="80.83" y2="112.1" xlink:href="#linear-gradient"/><linearGradient id="linear-gradient-16" x1="75.63" y1="126.57" x2="156.17" y2="126.57" xlink:href="#linear-gradient"/><linearGradient id="linear-gradient-17" x1="75.56" y1="152.88" x2="80.89" y2="152.88" xlink:href="#linear-gradient"/><linearGradient id="linear-gradient-18" x1="75.52" y1="152.73" x2="80.83" y2="152.73" xlink:href="#linear-gradient"/><linearGradient id="linear-gradient-19" x1="0" y1="126.5" x2="80.9" y2="126.5" xlink:href="#linear-gradient"/><linearGradient id="linear-gradient-20" x1="69.09" y1="130.86" x2="87.18" y2="130.86" xlink:href="#linear-gradient"/></defs><g id="Layer_2" data-name="Layer 2"><g id="Layer_1-2" data-name="Layer 1"><g class="cls-1"><path class="cls-2" d="M73.69,115.17a2.63,2.63,0,0,0-3.68.56l-.33.45a2.64,2.64,0,0,0,4.25,3.13l.33-.45A2.64,2.64,0,0,0,73.69,115.17Z"/><path class="cls-3" d="M74.38,140.27,67.6,127.93l6.33-8.63a2.64,2.64,0,1,0-4.25-3.12l-7.33,10a2.66,2.66,0,0,0-.19,2.84l7.6,13.81h0a2.64,2.64,0,0,0,4.62-2.54Z"/><path class="cls-4" d="M94,126.17l-7.3-10a2.63,2.63,0,0,0-4.68.92,2.61,2.61,0,0,0,.43,2.2l6.3,8.59-6.74,12.25a2.7,2.7,0,0,0-.32,1.28,2.63,2.63,0,0,0,2,2.55,2.48,2.48,0,0,0,.66.08,2.65,2.65,0,0,0,2.31-1.36L94.23,129A2.64,2.64,0,0,0,94,126.17Z"/><path class="cls-5" d="M97.22,84.49a2.74,2.74,0,0,0-1.81.51,41.6,41.6,0,0,0-4.22,3.33c-7.06,6.38-13.77,5.52-14,5.48a2.58,2.58,0,0,0-.48,0c-2.79.07-7.81-2.48-13.13-6.66-.82-.64-1.65-1.24-2.49-1.81A2.63,2.63,0,0,0,57,87.49v9a2.64,2.64,0,0,0,1,2,1.88,1.88,0,0,0,.23.16l18.59,12.43h0l0,0a2.65,2.65,0,0,0,2.69.12l.24-.14,0,0,0,0L98.37,98.7a1.07,1.07,0,0,0,.22-.15,2.62,2.62,0,0,0,1-2.07V87.11A2.63,2.63,0,0,0,97.22,84.49ZM93.84,95.11l-16.13,10.8L61.58,95.11v-2.4c3.93,2.86,9.71,6.37,14.42,6.37h0c1.58.17,9.64.65,17.81-6.53v2.56Z"/><path class="cls-6" d="M80.8,108.6a2.64,2.64,0,0,0-4.73-1.12L70,115.73a2.64,2.64,0,0,0,.56,3.69,2.6,2.6,0,0,0,1.56.51,2.65,2.65,0,0,0,2.13-1.07l6-8.22a2.66,2.66,0,0,0,.54-1.6A3.25,3.25,0,0,0,80.8,108.6Z"/><path class="cls-7" d="M118,23.46c-.05-.41-1.29-9.3-9.69-12.81a9,9,0,0,0-.77-5.52c-1.34-2.63-4-4.34-7.86-5.08L99.2,0H64.62A26.08,26.08,0,0,0,38.54,26.08V39.84A15.8,15.8,0,0,0,42,49.75a12.64,12.64,0,0,1,2.7,7.31,2.73,2.73,0,0,0,2,2.52A2.65,2.65,0,0,0,50.06,57V39a11.67,11.67,0,0,1,9-9H69.54a12.77,12.77,0,0,0,3.94-.61c2.18-.69,5.65-2,8.17-2.93a7.62,7.62,0,0,1,5.22-.07l12.28,4.3a11.17,11.17,0,0,1,7.36,8.46V60.7a2.68,2.68,0,0,0,2.42,2.69h.22a2.64,2.64,0,0,0,2.61-2.24,37.1,37.1,0,0,1,4.47-12.28,11.78,11.78,0,0,0,1.8-6.24V23.79A1.83,1.83,0,0,0,118,23.46ZM113.43,42.8a16.32,16.32,0,0,1-1.16,3.39V39.06a.39.39,0,0,1-.12-.28,16.43,16.43,0,0,0-10.81-13l0,0L89,21.47a13,13,0,0,0-4.28-.73,12.74,12.74,0,0,0-4.59.85c-3.52,1.33-6.25,2.32-7.88,2.84-.75.24-2.33.92-2.33.92H58.27s-.22-.55-.34-.54A16.81,16.81,0,0,0,44.32,38.24a1.22,1.22,0,0,0,0,.57v5.43A15.72,15.72,0,0,1,43.15,40V26.09c.23-11.46,21-20.33,21-20.33H99.32s3.22.48,3.89,1.78c.82,1.58-.11,3.76-.11,3.76a2.62,2.62,0,0,0,0,2.27A2.65,2.65,0,0,0,104.87,15c6.71,1.61,8.08,8.06,8.56,9.1V42.8Z"/><path class="cls-8" d="M112.26,39.24a16.37,16.37,0,0,0-10.83-12.9h0L89.07,22a12.89,12.89,0,0,0-8.81.11C76.72,23.48,74,24.47,72.34,25a7.61,7.61,0,0,1-2.33.36H58.33a2,2,0,0,0-.34,0A16.76,16.76,0,0,0,44.36,38.71l-.06.56V61.85c0,.78.58,19.26,13.44,27.71l.07,0,.17.11c.73.49,1.47,1,2.19,1.59,3.75,2.92,10.81,7.77,16.38,7.77h0c.3,0,.84.07,1.58.07,3.15,0,9.89-.82,16.64-6.87a35.51,35.51,0,0,1,3.79-3l.19-.14.2-.13c4.29-2.87,11.72-10.25,13.28-27.54v-22A2.53,2.53,0,0,0,112.26,39.24Zm-5.75,21.51c-1.44,15.71-8.16,21.8-11,23.7l-.3.2-.15.11a41.34,41.34,0,0,0-4.34,3.4c-7.11,6.39-13.86,5.55-14.19,5.51a3.55,3.55,0,0,0-.46,0c-2.82.07-7.9-2.49-13.28-6.69-.82-.65-1.66-1.26-2.5-1.83l-.07,0-.2-.14C49.61,78.07,48.93,62,48.91,61.34V39a11.65,11.65,0,0,1,9-9H69.41a12.84,12.84,0,0,0,4-.61c2.19-.7,5.68-2,8.2-2.95a7.7,7.7,0,0,1,5.23-.06l12.33,4.31a11.19,11.19,0,0,1,7.39,8.49V60.75Z"/><path class="cls-9" d="M80.55,107.86a2.63,2.63,0,0,0-4.48-.38l-6.32,8.6a2.64,2.64,0,0,0,.56,3.69,2.6,2.6,0,0,0,1.56.51A2.65,2.65,0,0,0,74,119.21l6.32-8.57a2.79,2.79,0,0,0,.51-1.6A2.53,2.53,0,0,0,80.55,107.86Z"/><path class="cls-10" d="M80.72,150.33a2.63,2.63,0,0,0-3.68-.12l-.61.55a2.64,2.64,0,0,0-.52,3.23l0,0a2.62,2.62,0,0,0,1.94,1.32,2.19,2.19,0,0,0,.36,0,2.63,2.63,0,0,0,1.87-.77l.58-.59A2.63,2.63,0,0,0,80.72,150.33Z"/><path class="cls-11" d="M80,150.76l-.61-.55A2.64,2.64,0,0,0,75.71,154l.58.59a2.63,2.63,0,0,0,1.87.77,2.31,2.31,0,0,0,.37,0A2.61,2.61,0,0,0,80.47,154l0,0A2.66,2.66,0,0,0,80,150.76Z"/><path class="cls-12" d="M80,150.8h0a2.71,2.71,0,0,0-1.52-.7,2.63,2.63,0,0,0-2.08.7h0a2.68,2.68,0,0,0-.86,1.9,2.62,2.62,0,0,0,.78,1.92l0,0a2.64,2.64,0,0,0,3.73,0l0,0a2.63,2.63,0,0,0,.77-1.93A2.67,2.67,0,0,0,80,150.8Z"/><path class="cls-13" d="M79.33,106.48A2.64,2.64,0,1,0,81.17,109h0A2.64,2.64,0,0,0,79.33,106.48Z"/><path class="cls-14" d="M80.19,107.45l0,0A2.64,2.64,0,0,0,75.41,109V109a2.62,2.62,0,0,0,1.4,2.31,2.59,2.59,0,0,0,1.24.31,2.64,2.64,0,0,0,2.14-4.21Z"/><path class="cls-15" d="M109.58,99.17A2.61,2.61,0,0,0,108,97.62L97.89,94l-.26-.07a2.6,2.6,0,0,0-2.1.36L76.79,106.8h0L78.24,109l-1.5-2.16a2.62,2.62,0,0,0-1.1,1.56,2.59,2.59,0,0,0,.43,2.2l13.72,18.69a2.63,2.63,0,0,0,2.13,1.07h.17A2.65,2.65,0,0,0,94.23,129l15.19-27.63A2.61,2.61,0,0,0,109.58,99.17Zm-18,23.66L82,109.7,97.36,99.41l6,2.13Z"/><path class="cls-16" d="M80.79,108.58a2.62,2.62,0,0,0-1.12-1.73L60.86,94.28a2.62,2.62,0,0,0-2-.38,1.92,1.92,0,0,0-.32.09L48.39,97.62A2.63,2.63,0,0,0,47,101.37L62.16,129a2.65,2.65,0,0,0,2.14,1.36h.17a2.63,2.63,0,0,0,2.13-1.07l7.33-10,0,0,6.37-8.68A2.6,2.6,0,0,0,80.79,108.58Zm-11.11,7.6,0,0-4.87,6.63L53.08,101.54l6-2.13L74.44,109.7Z"/><path class="cls-17" d="M155.64,149.11a9.75,9.75,0,0,0,.38-5l-3.37-20.35a18.18,18.18,0,0,0-11.74-14.11l-32.8-11.87a2.73,2.73,0,0,0-2.1,0,2.65,2.65,0,0,0-1.25,3.58l6.87,13.78-6.74.1a2.63,2.63,0,0,0-2.23,1.29,2.67,2.67,0,0,0-.07,2.57l2.77,5.28L77.07,150.33l-.09.08-.58.58a2.63,2.63,0,0,0-.44,3.14v0a2.67,2.67,0,0,0,2.33,1.37h68.25A9.66,9.66,0,0,0,155.64,149.11Zm-8.43.66H84.72l25.64-23.46a2.65,2.65,0,0,0,.56-3.19l-1.73-3.31,6.69-.1a2.65,2.65,0,0,0,2.34-3.84l-5.84-11.71,31.16,11.28a5.21,5.21,0,0,1,3.38,4.06l4.17,25.16h0a4.47,4.47,0,0,1-3.37,5A1.75,1.75,0,0,1,147.21,149.77Z"/><path class="cls-18" d="M80,150.93l0,0a2.63,2.63,0,0,0-3.64.09l0,0a2.64,2.64,0,0,0,1.88,4.5h0a2.64,2.64,0,0,0,1.77-4.6Z"/><path class="cls-19" d="M79.94,150.75a2.64,2.64,0,0,0-4.08.69l0,0a2.66,2.66,0,0,0,.42,3.11h0a2.66,2.66,0,0,0,1.9.8,2.62,2.62,0,0,0,1.77-.69l0,0a2.56,2.56,0,0,0,.58-.77A2.66,2.66,0,0,0,79.94,150.75Z"/><path class="cls-20" d="M80.13,151h0l0,0-.58-.59-.09-.08L51.06,124.37l2.77-5.3a2.64,2.64,0,0,0-2.3-3.86l-6.76-.11,7.12-14.28a.86.86,0,0,0,.1-.38,2.71,2.71,0,0,0-3.59-2.81l-33,11.93A18.22,18.22,0,0,0,3.65,123.7L.05,145.45a2.85,2.85,0,0,0,0,.77,9.84,9.84,0,0,0,9.76,9.31h69a1,1,0,0,0,.38-.08A2.73,2.73,0,0,0,80.13,151ZM9.74,149.77a4.41,4.41,0,0,1-4.27-3.36,4.22,4.22,0,0,1,0-1.77L8.84,124a12.9,12.9,0,0,1,8.33-10L44,104.32,38.17,116a2.66,2.66,0,0,0,.11,2.55,2.62,2.62,0,0,0,2.22,1.27l6.67.11-1.73,3.3a2.65,2.65,0,0,0,.56,3.17l25.56,23.38Z"/><path class="cls-21" d="M87.1,118.42a2.65,2.65,0,0,0-.43-2.2l-6.37-8.67a2.64,2.64,0,0,0-4.39.07l-6.3,8.55a2.55,2.55,0,0,0-.24.39,2.65,2.65,0,0,0,.19,2.69l2.69,3.85-2.86,18a2.67,2.67,0,0,0,.29,1.69L75.81,154a2.64,2.64,0,0,0,4.62,0l6.17-11.22a2.59,2.59,0,0,0,.33-1.27h0a2.93,2.93,0,0,0,0-.41L84.05,123.1l2.65-3.81A2.55,2.55,0,0,0,87.1,118.42ZM78.2,147.2l-3.38-6.14,2.88-18.18a2.62,2.62,0,0,0-.44-1.92l-2.21-3.18,3.15-4.27,3.17,4.31L79.19,121a2.62,2.62,0,0,0-.44,1.92L81.62,141Z"/></g></g></g></svg>