<svg id="Layer_1" data-name="Layer 1" xmlns="http://www.w3.org/2000/svg" viewBox="0 0 70.48 674.49"><defs><style>.cls-1,.cls-2,.cls-3,.cls-4{fill:none;stroke:#000;stroke-miterlimit:10;}.cls-1{stroke-width:1.5px;}.cls-2{stroke-width:1.6px;}.cls-3{stroke-width:1.53px;}.cls-4{stroke-width:1.63px;}.cls-5{fill:#009245;}.cls-6{fill:#006837;}</style></defs><path class="cls-1" d="M202.47,361.2s-70.44,76.29,0,159.38" transform="translate(-168.33 -22.51)"/><path class="cls-2" d="M202.47,520.89s79.94,76.29,0,159.39" transform="translate(-168.33 -22.51)"/><path class="cls-3" d="M201.37,41.82s-72.62,76.29,0,159.38" transform="translate(-168.33 -22.51)"/><path class="cls-4" d="M201.37,201.51s82.42,76.29,0,159.38" transform="translate(-168.33 -22.51)"/><ellipse class="cls-5" cx="34.2" cy="14.31" rx="14.52" ry="14.31"/><path d="M201.93,30.13h-.06l-3.29,1.61-.5-1.77,4.14-2h2.19V45.14h-2.48Z" transform="translate(-168.33 -22.51)"/><ellipse cx="36.23" cy="185.89" rx="14.52" ry="14.31"/><path class="cls-5" d="M199.49,214.54v-1.16l1.69-1.44c4-3.39,5.88-5.19,5.91-7.29,0-1.42-.78-2.72-3.15-2.72a5.79,5.79,0,0,0-3.37,1.18l-.69-1.33a7.56,7.56,0,0,1,4.5-1.42c3.42,0,4.86,2.06,4.86,4,0,2.58-2.13,4.66-5.47,7.49l-1.27,1v0h7.13v1.57Z" transform="translate(-168.33 -22.51)"/><ellipse class="cls-6" cx="36.23" cy="332.58" rx="14.52" ry="14.31"/><path d="M200.09,359.59a8.54,8.54,0,0,0,3.6.84c2.82,0,3.69-1.47,3.66-2.58,0-1.85-2.07-2.65-4.19-2.65h-1.22v-1.35h1.22c1.6,0,3.62-.67,3.62-2.24,0-1.06-.82-2-2.84-2a6.87,6.87,0,0,0-3.25.88l-.57-1.31a8.93,8.93,0,0,1,4.24-1c3.2,0,4.64,1.55,4.64,3.16,0,1.37-1,2.53-3,3.13v0c2,.32,3.62,1.55,3.62,3.4,0,2.13-2,4-5.92,4a9.85,9.85,0,0,1-4.22-.89Z" transform="translate(-168.33 -22.51)"/><ellipse cx="30.15" cy="496.83" rx="14.52" ry="15.01"/><path class="cls-5" d="M199.17,525.27v-3.69h-6.43v-1.21l6.17-8.67h2v8.44h1.94v1.44h-1.94v3.69Zm0-5.13v-4.53q0-1.07.06-2.13h-.06c-.43.79-.77,1.37-1.15,2l-3.39,4.61v0Z" transform="translate(-168.33 -22.51)"/><ellipse class="cls-6" cx="34.2" cy="660.18" rx="14.52" ry="14.31"/><path d="M206.68,678.21h-5.42l-.54,3.17a10.34,10.34,0,0,1,1.15-.07,6.77,6.77,0,0,1,3.06.66,3.48,3.48,0,0,1,2,3.18c0,2.41-2.2,4.22-5.28,4.22a7.79,7.79,0,0,1-3.54-.76l.48-1.28a7,7,0,0,0,3,.69c1.81,0,3.36-1,3.36-2.68s-1.25-2.74-4.08-2.74a18.62,18.62,0,0,0-2,.13l.92-5.93h6.79Z" transform="translate(-168.33 -22.51)"/></svg>