<svg xmlns="http://www.w3.org/2000/svg" viewBox="0 0 73.94 79.94"><defs><style>.cls-1{fill:#ff9085;}</style></defs><g id="Layer_2" data-name="Layer 2"><g id="Layer_1-2" data-name="Layer 1"><path class="cls-1" d="M14.76,60l5.09,1.56a3.6,3.6,0,0,0,1,.15A3.56,3.56,0,0,0,22,61.47a3.48,3.48,0,0,0,2.17-2.21L28.53,45.7l9.27-6.53,5.59,10.42a3.48,3.48,0,0,0,2,1.66l14.38,4.63-.31,1.57a3.51,3.51,0,0,0,2.64,4.14,3.47,3.47,0,0,0,4.13-2.7l.94-4.67a3.45,3.45,0,0,0-2.33-4l-16-5.15,0,0L42.26,32.85,38.59,17.34l6.53,2.18L50,30.71a3.46,3.46,0,0,0,6.35-2.77L55,24.84a1.12,1.12,0,0,0-2.06.89l1.36,3.1a1.22,1.22,0,1,1-2.24,1L47.13,18.53a2,2,0,0,0-1.2-1.1l-8.54-2.85a1.15,1.15,0,0,0-1.11.24A1.13,1.13,0,0,0,36,15.91l4.17,17.6a1.48,1.48,0,0,0,.1.27l6.63,12.35a2.28,2.28,0,0,0,1.31,1.09l16,5.15A1.23,1.23,0,0,1,65,53.78L64,58.45a1.23,1.23,0,0,1-1.46.95,1.27,1.27,0,0,1-.93-1.5l.52-2.55a1.13,1.13,0,0,0-.76-1.29L46.07,49.12a1.26,1.26,0,0,1-.71-.59L37.92,34.67a1.21,1.21,0,0,1-.11-.3l-5.21-22A1.19,1.19,0,0,1,33,11.19a1.22,1.22,0,0,1,1.21-.26l13.9,4.63a1.25,1.25,0,0,1,.73.68L51,21.35a1.12,1.12,0,0,0,2.06-.89l-2.24-5.12a3.47,3.47,0,0,0-2.07-1.9l-13-4.35a5.69,5.69,0,1,0-5.33,2.24c0,.08,0,.16-.05.25s.11-.48-2.75,11l-10.21,6a3.46,3.46,0,0,0,3.52,6l11.46-6.78a3.49,3.49,0,0,0,1.26-1.27l1.45,6.12-11.5,8.11a3.45,3.45,0,0,0-1.3,1.77L20.84,47a1.12,1.12,0,0,0,.73,1.41,1,1,0,0,0,.34,0A1.14,1.14,0,0,0,23,47.66l1.44-4.5a1.3,1.3,0,0,1,.46-.62L35.65,35a11,11,0,0,0,1.08,2.23l-9.8,6.91a1.2,1.2,0,0,0-.42.57L22,58.57a1.22,1.22,0,0,1-.77.78,1.13,1.13,0,0,1-.75,0l-5.09-1.55a1.23,1.23,0,0,1-.82-1.53c.58-1.88,3.25,0,4.42.07a1.12,1.12,0,0,0,1.39-.73l1.1-3.42a1.12,1.12,0,0,0-2.13-.69l-.76,2.37-1.84-.56a3.47,3.47,0,0,0-2,6.63Zm13-54.65a3.45,3.45,0,1,1,4.74,3.58h0A3.46,3.46,0,0,1,27.75,5.3Zm4.06,19.77a1.26,1.26,0,0,1-.56.76L19.78,32.6a1.22,1.22,0,0,1-1.67-.43,1.23,1.23,0,0,1,.43-1.68l10.62-6.27a1.17,1.17,0,0,0,.51-.7l1.68-6.71L32.58,22Z"/><path class="cls-1" d="M72.86,67.67H32a3.25,3.25,0,0,0-6.11,0H1.08A1.08,1.08,0,0,0,0,68.75V78.86a1.08,1.08,0,0,0,1.08,1.08H72.86a1.08,1.08,0,0,0,1.08-1.08V68.75A1.08,1.08,0,0,0,72.86,67.67ZM29,67.69a1.09,1.09,0,1,1-1.08,1.08A1.09,1.09,0,0,1,29,67.69ZM2.17,77.78V74.89H9.29a1.09,1.09,0,0,0,0-2.17H2.17V69.83H25.88a3.25,3.25,0,0,0,6.14,0H71.78v2.89H61.36a3.25,3.25,0,0,0-6.13,0H13.86a1.09,1.09,0,0,0,0,2.17H55.23a3.25,3.25,0,0,0,6.13,0H71.78v2.89Zm55-4a1.09,1.09,0,1,1,1.09,1.09,1.09,1.09,0,0,1-1.09-1.09Z"/></g></g></svg>