<?xml version="1.0" standalone="no"?>
<!DOCTYPE svg PUBLIC "-//W3C//DTD SVG 20010904//EN"
 "http://www.w3.org/TR/2001/REC-SVG-20010904/DTD/svg10.dtd">
<svg version="1.0" xmlns="http://www.w3.org/2000/svg"
 width="400.000000pt" height="720.000000pt" viewBox="0 0 400.000000 720.000000"
 preserveAspectRatio="xMidYMid meet">
<metadata>
Created by potrace 1.16, written by Peter Selinger 2001-2019
</metadata>
<g transform="translate(0.000000,720.000000) scale(0.100000,-0.100000)"
fill="#000000" stroke="none">
<path d="M1953 6950 c-64 -39 -88 -111 -58 -175 10 -20 26 -42 36 -48 16 -10
13 -17 -31 -81 -92 -137 -161 -301 -196 -466 -21 -102 -24 -306 -5 -395 38
-183 146 -414 244 -522 l20 -23 -20 -22 c-70 -77 -53 -182 37 -229 44 -24 86
-24 133 0 l38 19 36 -55 c180 -281 227 -585 137 -868 -32 -97 -159 -326 -182
-325 -4 1 -18 7 -32 15 -91 52 -219 -33 -206 -138 4 -33 13 -52 50 -102 6 -8
-5 -32 -31 -71 -160 -235 -241 -539 -213 -795 16 -143 50 -255 125 -403 l65
-128 -25 -30 c-52 -62 -46 -154 14 -211 52 -48 120 -55 174 -16 15 11 31 18
36 15 15 -10 102 -145 146 -228 159 -300 166 -630 19 -923 -25 -49 -70 -125
-100 -168 -54 -76 -56 -78 -87 -70 -112 27 -204 -42 -194 -146 15 -143 203
-178 270 -50 23 43 18 106 -12 147 l-21 30 53 75 c279 388 285 820 17 1230
-37 57 -73 107 -79 111 -8 5 -7 15 4 36 32 62 10 151 -49 193 -24 17 -44 22
-92 21 l-61 0 -37 65 c-222 389 -203 831 52 1223 l50 75 50 -5 c57 -5 107 15
136 55 26 36 32 102 12 141 -17 32 -16 33 25 94 184 271 233 563 143 857 -30
99 -87 222 -142 307 -38 58 -39 62 -25 89 22 41 12 119 -18 151 -40 44 -77 57
-136 51 l-53 -6 -55 77 c-139 197 -215 423 -215 637 0 222 77 464 213 672 l41
63 51 -6 c85 -9 151 41 161 122 14 110 -117 193 -213 134z"/>
</g>
</svg>
