<?xml version="1.0" standalone="no"?>
<!DOCTYPE svg PUBLIC "-//W3C//DTD SVG 20010904//EN"
 "http://www.w3.org/TR/2001/REC-SVG-20010904/DTD/svg10.dtd">
<svg version="1.0" xmlns="http://www.w3.org/2000/svg"
 width="400.000000pt" height="720.000000pt" viewBox="0 0 400.000000 720.000000"
 preserveAspectRatio="xMidYMid meet">
<metadata>
Created by potrace 1.16, written by Peter Selinger 2001-2019
</metadata>
<g transform="translate(0.000000,720.000000) scale(0.100000,-0.100000)"
fill="#000000" stroke="none">
<path d="M1899 6947 c-73 -48 -87 -145 -30 -206 l27 -28 -44 -64 c-58 -86
-113 -196 -150 -301 -103 -291 -89 -570 43 -845 43 -91 108 -196 148 -240 l20
-23 -20 -22 c-70 -77 -52 -186 37 -230 45 -23 87 -23 133 1 l38 19 36 -55
c130 -204 191 -418 180 -628 -8 -128 -36 -236 -91 -352 -45 -93 -121 -213
-134 -213 -4 1 -18 7 -32 15 -91 52 -219 -33 -206 -138 4 -33 13 -52 50 -102
6 -8 -5 -32 -31 -71 -168 -247 -247 -560 -208 -824 20 -144 61 -265 131 -398
l54 -104 -24 -29 c-69 -82 -29 -221 71 -248 39 -11 97 1 124 25 20 18 21 18
40 -6 84 -108 168 -264 208 -386 102 -314 49 -628 -155 -917 -54 -76 -56 -78
-87 -70 -112 27 -204 -42 -194 -146 15 -143 203 -178 270 -50 23 43 18 106
-12 147 l-21 30 56 79 c150 209 225 448 209 671 -14 212 -98 431 -238 621 -38
52 -39 55 -27 92 38 113 -45 220 -159 205 l-46 -6 -38 67 c-57 100 -96 195
-124 302 -22 82 -26 118 -27 251 0 97 4 177 13 215 37 164 107 334 194 465
l42 65 52 -3 c59 -4 108 15 137 55 26 36 32 102 12 141 -16 31 -16 31 38 115
207 317 230 659 66 1002 -21 44 -56 107 -78 141 -38 58 -39 62 -25 89 22 41
12 119 -18 151 -40 44 -77 57 -136 51 l-53 -6 -55 77 c-283 401 -285 867 -7
1299 l47 72 50 -5 c85 -9 151 41 161 122 14 113 -121 195 -217 131z"/>
<path d="M2690 6813 c-262 -91 -279 -444 -28 -559 82 -37 197 -40 270 -7 104
47 165 121 189 226 31 141 -67 298 -213 342 -66 19 -160 19 -218 -2z m208 -52
c67 -27 112 -68 138 -128 85 -192 -79 -388 -288 -343 -113 23 -198 125 -198
236 0 29 5 65 11 81 50 135 207 207 337 154z"/>
<path d="M917 5380 c-97 -25 -173 -84 -219 -173 -33 -63 -31 -175 4 -242 106
-203 408 -233 538 -54 108 150 58 365 -103 443 -59 29 -161 40 -220 26z m198
-85 c91 -56 131 -147 114 -255 -10 -67 -60 -129 -131 -164 -116 -58 -263 -19
-334 87 -60 91 -37 241 46 307 63 50 97 61 181 58 64 -3 83 -8 124 -33z"/>
<path d="M2881 3885 c-103 -29 -195 -120 -222 -218 -16 -61 -7 -173 20 -225
33 -65 87 -118 149 -149 80 -38 192 -39 272 -2 79 37 115 72 152 147 82 166
14 358 -155 432 -62 28 -149 33 -216 15z m215 -84 c124 -71 167 -212 104 -338
-49 -97 -124 -143 -234 -143 -179 0 -304 178 -239 342 23 59 60 104 108 132
51 30 65 33 145 35 55 1 73 -4 116 -28z"/>
<path d="M933 2380 c-229 -47 -319 -341 -158 -518 115 -128 320 -130 436 -5
63 68 84 123 84 218 0 60 -6 91 -22 126 -60 132 -203 207 -340 179z m161 -74
c57 -26 110 -80 134 -135 20 -49 19 -159 -3 -202 -29 -58 -94 -117 -148 -135
-98 -33 -211 1 -267 78 -40 55 -64 137 -55 191 16 100 61 162 150 203 64 31
122 30 189 0z"/>
<path d="M2890 811 c-173 -56 -262 -230 -201 -390 27 -73 64 -115 134 -152 57
-31 69 -34 147 -33 99 1 154 21 220 80 64 58 94 124 94 209 1 122 -61 218
-173 268 -50 22 -177 33 -221 18z m194 -69 c50 -23 84 -54 116 -107 20 -32 24
-53 24 -110 0 -59 -4 -78 -29 -119 -52 -88 -140 -133 -246 -123 -65 6 -106 25
-152 71 -49 49 -68 97 -68 171 0 89 28 139 114 205 54 41 163 46 241 12z"/>
</g>
</svg>
