<svg id="Layer_1" data-name="Layer 1" xmlns="http://www.w3.org/2000/svg" viewBox="0 0 432 300"><defs><style>.cls-1{fill:#ebf3fa;}.cls-2{fill:#f3f8fc;}.cls-3{fill:#eef5fb;}.cls-4{fill:#e8f0fd;}.cls-5{fill:#c0d8fb;}.cls-6{fill:#dfebfd;}.cls-7{fill:#b7d3f3;}.cls-8{fill:#deedff;}.cls-9{fill:#2e3552;}.cls-10{fill:#122544;}.cls-11{fill:#d2e3fc;}.cls-12{fill:#82b378;}.cls-13{fill:#a8d29f;}.cls-14{fill:#2b478b;}.cls-15{fill:#ea9e6a;}.cls-16{fill:#d88d59;}.cls-17{fill:#8e342e;}.cls-18{fill:#233862;}.cls-19{fill:#b24940;}.cls-20{fill:#c65447;}.cls-21{fill:#f9ddbf;}.cls-22{fill:#ed7d2b;}.cls-23{fill:#ffb27d;}.cls-24{fill:#ed985f;}.cls-25{fill:#fff;}.cls-26{fill:#f99746;}.cls-27{fill:#ffc397;}.cls-28{fill:#2c3a64;}</style></defs><path class="cls-1" d="M139.84,182.21v101l-121.55.43c.3-4.42-19.7-62.67,5.94-96,36.39-47.24,67.49-9,108.54-5.72a66.07,66.07,0,0,0,7.07.21Z"/><path class="cls-2" d="M419.12,281.29c-.08.63-3.44.58-6.79.52s-6.63-.1-6.72.51l-82.17.29H139.84V182.21a66.21,66.21,0,0,0,7.06-.57,68.6,68.6,0,0,0,25.46-9.08c92.69-53.75,168.16-39.16,210.53,2.81a126.15,126.15,0,0,1,36.23,105.92"/><path class="cls-2" d="M323.44,283.32H139.84v-.08l183.6-.63,82.17-.29c.06-.44,1.79-.54,4-.54h0l2.29,0h.44l2.74,0c2.2,0,3.94-.09,4.05-.53v0h0c.11-.88.22-1.76.31-2.65.42-4,.66-8,.7-11.91,0-.32,0-.64,0-1a126.76,126.76,0,0,1-1,16.23c-.06.46-1.82.56-4.05.56l-2.73,0-2.74,0c-2.2,0-3.93.09-4,.54l-82.17.28"/><path class="cls-3" d="M412.18,281.81h0m-.29,0-2.29,0,2.29,0m-2.29,0h0m9.52-.47v0m0,0c.11-.88.22-1.76.31-2.65-.09.89-.2,1.77-.31,2.65m1-14.56c0-.45,0-.89,0-1.34v.38c0,.32,0,.64,0,1"/><polygon class="cls-4" points="384 205.83 384 282.61 146.9 282.61 146.9 215.8 165.07 215.8 165.07 197.56 183.25 197.56 183.25 222.2 197.97 222.2 197.97 216.69 223.59 216.69 223.59 226 234.75 226 234.75 205.1 264.61 205.1 264.61 169.26 288.22 169.26 288.22 188.38 293.61 188.38 293.61 172.36 317.22 172.36 317.22 197.03 338.62 197.03 338.62 181.89 361.5 181.89 361.5 197.03 365.77 197.03 365.77 205.83 384 205.83 384 205.83"/><path class="cls-5" d="M112.48,212.56H91.4a1.76,1.76,0,0,1-1.76-1.76V190.45a1.76,1.76,0,0,1,1.76-1.76h21.08a1.76,1.76,0,0,1,1.76,1.76V210.8a1.76,1.76,0,0,1-1.76,1.76Z"/><path class="cls-6" d="M111.57,211.52H92.31a1.61,1.61,0,0,1-1.61-1.6V191.33a1.62,1.62,0,0,1,1.61-1.61h19.26a1.62,1.62,0,0,1,1.61,1.61v18.59a1.61,1.61,0,0,1-1.61,1.6Z"/><path class="cls-7" d="M101.43,191.9a.51.51,0,1,1,.51.51.51.51,0,0,1-.51-.51Z"/><path class="cls-7" d="M105.54,192.62a.53.53,0,0,1,.7-.2.52.52,0,0,1,.19.7.51.51,0,0,1-.89-.5Z"/><path class="cls-7" d="M109.07,195.42a.51.51,0,0,1,.55.86.52.52,0,0,1-.71-.16.51.51,0,0,1,.16-.7Z"/><path class="cls-7" d="M110.81,199.75a.51.51,0,1,1-.51.51.51.51,0,0,1,.51-.51Z"/><path class="cls-7" d="M109.92,204.78a.51.51,0,1,1-.72,0,.51.51,0,0,1,.72,0Z"/><path class="cls-7" d="M106.72,208a.51.51,0,1,1-.72,0,.51.51,0,0,1,.72,0Z"/><path class="cls-7" d="M101.43,209.64a.51.51,0,1,1,.51.51.51.51,0,0,1-.51-.51Z"/><path class="cls-7" d="M98.32,192.62a.52.52,0,0,0-.69-.2.51.51,0,1,0,.49.89.5.5,0,0,0,.2-.69Z"/><path class="cls-7" d="M94.8,195.42a.51.51,0,1,0-.56.86.51.51,0,0,0,.56-.86Z"/><path class="cls-7" d="M93.05,199.75a.51.51,0,1,0,.51.51.51.51,0,0,0-.51-.51Z"/><path class="cls-7" d="M93.94,204.78a.51.51,0,1,0,.72,0,.51.51,0,0,0-.72,0Z"/><path class="cls-7" d="M97.14,208a.51.51,0,1,0,.72,0,.51.51,0,0,0-.72,0Z"/><path class="cls-7" d="M101.8,200.26a.51.51,0,1,1,.51.51.51.51,0,0,1-.51-.51Z"/><polygon class="cls-7" points="102.38 200.26 102.24 200.26 102.24 193.9 102.38 193.9 102.38 200.26 102.38 200.26"/><polygon class="cls-7" points="102.38 200.42 102.12 200.09 105.5 197.44 105.75 197.77 102.38 200.42 102.38 200.42"/><path class="cls-8" d="M146.9,181.64V282.08H132.77V182a64.66,64.66,0,0,0,14.13-.36Z"/><path class="cls-8" d="M397,192.06v90H382.89V175.37A125,125,0,0,1,397,192.06Z"/><path class="cls-9" d="M429.68,283.53H5.13a.62.62,0,0,1-.62-.62v-.6a.61.61,0,0,1,.62-.61H429.68a.61.61,0,0,1,.61.61v.6a.62.62,0,0,1-.61.62Z"/><polygon class="cls-7" points="158.48 246.63 156.22 246.63 158.99 281.75 164.5 281.75 158.48 246.63 158.48 246.63"/><path class="cls-10" d="M203.54,236.38l-.48.1a4,4,0,0,1-4.74-3.14l-.51-2.55a4,4,0,0,1,3.14-4.73l.49-.1a4,4,0,0,1,4.73,3.14l.52,2.55a4,4,0,0,1-3.15,4.73Z"/><path class="cls-7" d="M156.22,246.63s12.37-5.81,29.33-1.95l-27.07,1.95Z"/><path class="cls-11" d="M164.5,282.08l-6-35.45s19-6.37,33.67,0l8.75,35.23-36.4.22Z"/><path class="cls-12" d="M295.59,271.1c-.33,3.85-2.51,5-3.46,4.94s-6.54-2.24-6.66-1.46,3.24,3.34,5.59,3.46c0,0-4.45,4.91-7.4,3.49s-3.21-3.66-5.05-4.5-3.41-.84-2.65,0,4.09,1.69,5.14,3.56c.25.44.5.84.68,1.2h-6.22c-2-1-3.63-2.34-3.76-3.79,0-.11,0-.22,0-.32l-.19-2.24s-3.2-3.73-1.54-6.82a4.87,4.87,0,0,1,1.27-1.47s3-1.8,5.4-1.66a29.41,29.41,0,0,0-2.41,5c-.19.67-.2,1.17.08,1.32s.73-.32,1.16-1.08a39.24,39.24,0,0,0,2.21-5.63s1.79-.17,3.83-.2c.92,0,1.88,0,2.75.09a7.52,7.52,0,0,1,2.38.5l-.33.27c-.3.26-.79.67-1.33,1.15-1.61,1.42-3.69,3.43-2.91,3.6s2.61-1,4.38-2.2,3.09-2.16,3.09-2.16,6.31,1.07,6,4.91Z"/><path class="cls-12" d="M292.49,271.21s-17.12-.66-20.9,4.24a12.43,12.43,0,0,1-3.41,4.78l-.41,1.1s3-3.13,4-3.32c0,0-1.66-6.07,20.69-6.8Z"/><path class="cls-12" d="M268.89,280.21c-.14.16-.36.37-.68.67h0a3.34,3.34,0,0,0-.32.33,6.72,6.72,0,0,0-.46.57h-.8a9.85,9.85,0,0,1,1.54-1.55h0c.06,0,1.53-.93.71,0Z"/><path class="cls-13" d="M252.89,269.07s6.91-3.87,3.68-9.12c0,0-2.58-3.22-5.34-4,0,0,1.47,7.83,0,8s-1-8.84-1-8.84-7.28-3.5-10.14-3.22c0,0,4.52,7.64,3,7.46s-6.54-7.93-6.54-7.93-7.46-1.38-8.66,3,.74,6.64,1.84,6.91,8.2.19,8,1.11-5,2.4-7.65,1.57c0,0,3,7.27,6.82,6.91s5.07-2.77,7.46-2.95,4.15.46,3,1.1-5.25.21-7.18,1.86-3.51,2.66.09,3.39,10,.28,11.33-2.48l1.29-2.77Z"/><path class="cls-12" d="M231.33,255.81s19.35,6.26,21.56,13.26a14.75,14.75,0,0,0,1.84,6.73v1.38s-2-4.7-3.13-5.34c0,0,4.33-6.08-20.27-16Z"/><path class="cls-12" d="M256.52,281.77h-1.1a14.44,14.44,0,0,0-.77-4.76h0c-.07-.17-.14-.33-.22-.49h0a11.06,11.06,0,0,1-.48-1h0c-.56-1.38.79.32.79.32a13,13,0,0,1,1.79,6Z"/><path class="cls-13" d="M263.88,263.74s-9.11-5.1-4.86-12c0,0,3.4-4.25,7.05-5.34,0,0-1.95,10.32,0,10.57s1.33-11.66,1.33-11.66,9.6-4.62,13.36-4.25c0,0-5.95,10.08-4,9.83s8.63-10.44,8.63-10.44,9.83-1.82,11.41,4-1,8.74-2.43,9.11-10.8.24-10.56,1.45,6.56,3.16,10.08,2.07c0,0-3.89,9.59-9,9.11s-6.68-3.65-9.84-3.89-5.46.61-3.88,1.46,6.92.28,9.47,2.44,4.62,3.51-.12,4.48-13.24.36-14.94-3.28l-1.7-3.64Z"/><path class="cls-12" d="M292.3,246.25s-25.5,8.26-28.42,17.49a19.36,19.36,0,0,1-2.43,8.86v1.82s2.67-6.19,4.13-7c0,0-5.71-8,26.72-21.13Z"/><path class="cls-12" d="M262.49,272.18h0c-.13.31-.34.75-.64,1.34h0a5.54,5.54,0,0,0-.29.65h0a21.2,21.2,0,0,0-1,7.58h-1.46a17.19,17.19,0,0,1,2.37-9.17h0c0-.05,1.78-2.22,1-.42Z"/><path class="cls-14" d="M218.53,281.86H183.89a36.59,36.59,0,0,1-1.35-3.95,67.13,67.13,0,0,1-2-11,.59.59,0,0,0,0-.14,128.68,128.68,0,0,1-.6-16.43c.05-2.16.14-3.49.14-3.56h0l.22-.09q2.76-1.15,5.29-2h0c1.41-.48,2.78-.9,4.1-1.26A61.89,61.89,0,0,1,196.1,242a47,47,0,0,1,6.37-.58h.25c.5,0,1,0,1.46,0a27.61,27.61,0,0,1,9.49,1.67l.57.24.07,0,.41.2,0,0,.14.08,2.5,26.25,1.13,11.94Z"/><path class="cls-14" d="M253.06,276.18c-3.47,1.62-24.12,3-26.1,2.4-1-.3-5.28-4.05-9.56-8.66h0c-4.05-4.36-8.14-9.5-9.52-13.19a22.67,22.67,0,0,1-.4-14.34s5.27,0,7.42,1.28,14.43,23.91,16.07,24.51,21.09,1.71,23.32,2.76c0,0,2.24,3.63-1.23,5.24Z"/><path class="cls-15" d="M202.72,242.34v1.28s.36,4-4.57,4.59-8.65-1.55-8.52-4.63a36.14,36.14,0,0,0,.95-6,13.77,13.77,0,0,0-.18-2.39l9.54-.21,2.81.46,0,6.91Z"/><path class="cls-16" d="M202.74,235.43l0,6.91a8.28,8.28,0,0,1-3.44.77c-4.38,0-8.75-7.05-8.89-7.93l12.35.25Z"/><path class="cls-15" d="M203.3,238.78s-12.21,2.49-13.64-5.14-4-12.45,3.76-14.36,9.81.72,10.91,3.15,2.12,15.51-1,16.35Z"/><path class="cls-17" d="M206.69,216.75a25.53,25.53,0,0,1-7.43-2c-3.26-1.42-7.37.15-8.71.86a2,2,0,0,1,.33-.81,1.82,1.82,0,0,0-.69,1c-.06,0-.09.08-.07.09A2.31,2.31,0,0,0,189,216s.31-.05.42.15a.08.08,0,0,0,.05,0c-5.09,2.47-5.55,10.51-3.91,12.37,2,2.23,4.35,7.27,4.35,7.27a4.29,4.29,0,0,0,.49-3.16c-.36-2,1.35-2,3.49-2.87s.36-3.4,2.23-4.93,8.78-.64,8.69-1.8c2.55-.94,1.88-6.06,1.88-6.33Z"/><path class="cls-18" d="M183.89,281.86a36.59,36.59,0,0,1-1.35-3.95,67.13,67.13,0,0,1-2-11,.59.59,0,0,0,0-.14s.08.08.1.05c1.35-1.64,5-3.44,9.49,3.09.89,1.3,4.79,10.42,5.42,11.94Z"/><path class="cls-15" d="M187.51,281.86a3.72,3.72,0,0,1,.47-2.26s.57-.37,1.33-.8c1.13-.64,2.68-1.41,3.38-1.29l.5.11c1.66.4,5.53,1.6,6.12,2.3s1.14,1.3,1.59,1.94Z"/><path class="cls-14" d="M190.07,281.86H157.43a1.92,1.92,0,0,1,0-1.1c1-2.46,2.87-6.51,5.06-10.85,1.61-3.2,3.37-6.55,5-9.55a67.77,67.77,0,0,1,5.67-9.09,14.49,14.49,0,0,1,3.52-2.84,25.61,25.61,0,0,1,3.27-1.64h0l.22-.09a29.86,29.86,0,0,1,4.08-1.33s0,1,0,2.62c0,4.6-.16,13.87-1.63,16.14a30,30,0,0,1-2.13,2.7l-.08.09c-.51.61-1.09,1.26-1.69,1.92-3.4,3.82-7.72,8.3-8.24,8.85l-.06.05h.07l9.15.13,2.81,0,5.82.08a2.2,2.2,0,0,1,.95.81,5.87,5.87,0,0,1,.76,3.06Z"/><path class="cls-18" d="M253.06,276.18c-3.47,1.62-24.12,3-26.1,2.4-1-.3-5.28-4.05-9.56-8.66.21,0,2.17-3.23,11.1,4.58,0,0,2.34,1,8.7.46s14.54-.8,15.86,1.22Z"/><path class="cls-19" d="M232.77,281.8h-23.6a1.89,1.89,0,0,1,1.89-1.88h21.71v1.88Z"/><polygon class="cls-19" points="232.71 256.09 269.2 256.09 260.44 281.8 223.72 281.8 232.71 256.09 232.71 256.09"/><polygon class="cls-20" points="269.73 256.09 260.98 281.8 224.26 281.8 233.25 256.09 269.73 256.09 269.73 256.09"/><path class="cls-21" d="M250.06,268.71a2.37,2.37,0,0,1-2.19,1.78,1.38,1.38,0,0,1-1.37-1.78,2.37,2.37,0,0,1,2.19-1.78,1.37,1.37,0,0,1,1.37,1.78Z"/><polygon class="cls-19" points="269.73 256.09 260.98 281.8 243.9 281.8 264.36 256.09 269.73 256.09 269.73 256.09"/><path class="cls-10" d="M193.21,236.38l-.49.1a4,4,0,0,1-4.73-3.14l-.52-2.55a4,4,0,0,1,3.15-4.73l.48-.1a4,4,0,0,1,4.74,3.14l.51,2.55a4,4,0,0,1-3.14,4.73Z"/><path class="cls-10" d="M189.42,227.22c-.32-.58-.8-5.32.5-9.08a6,6,0,0,1,2.92-3.56,3.06,3.06,0,0,1,1.51-.39l1.28,0c-4.22,1.78-5.2,11.35-4.87,12.37a.29.29,0,0,0,0-.08l-1.3.72Z"/><path class="cls-10" d="M201.74,237.18a13.09,13.09,0,0,1-10.64-5.67l.64-.38-.32.19.32-.19a12.3,12.3,0,0,0,10,5.3h.14v.75Z"/><path class="cls-14" d="M192.06,233.89l-.24.05a2,2,0,0,1-2.36-1.57l-.25-1.26a2,2,0,0,1,1.56-2.36l.25-.05a2,2,0,0,1,2.35,1.57l.26,1.26a2,2,0,0,1-1.57,2.36Z"/><path class="cls-10" d="M202.62,237.42H202a.62.62,0,0,1,0-1.23h.67a.62.62,0,1,1,0,1.23Z"/><path class="cls-17" d="M60.7,226.32s-6,3.05-1.62,9.58c0,0-5.11.59-6.4-.88a4.42,4.42,0,0,0,.42,1s-5-.65-6.73-2.53,3.76-26.85,17-21.74c0,0,11.73,1.07,8.4,14.29s1,14,1,14a6.27,6.27,0,0,1-1.91.3s-.8-.47-.89-1a3,3,0,0,0,.22,1s-4.79-.34-6.85-2.52S59.56,229,60.7,226.32Z"/><path class="cls-22" d="M69.19,232.86l-.47.06a3.91,3.91,0,0,1-4.4-3.32L64,227.11a3.91,3.91,0,0,1,3.32-4.4l.48-.06A3.9,3.9,0,0,1,72.17,226l.35,2.49a3.93,3.93,0,0,1-3.33,4.4Z"/><path class="cls-23" d="M70.55,252.82c-1.77,1.37-2.9,6.32-5.76,7.14-10.74,3.07-16.5-9.68-18.38-15.9A9.24,9.24,0,0,1,50,242.74c.78-.14,1.6-.24,2.28-.31,1.18-1,2.8-4.91,2.9-10.87l.52.11,8.68,1.91s-.26,2.74-.32,5.32c0,2-.11,2.51,0,2.75.67.11,1.47,1.83,1.47,1.83h0a54.85,54.85,0,0,1,4.94,9.33Z"/><path class="cls-24" d="M64.41,233.58s-.26,2.74-.32,5.32c-4.87-.23-7.36-4.74-8.36-7.22l8.68,1.9Z"/><path class="cls-11" d="M108.56,278.6s-5.11.19-10.65.21h-2c-4.51,0-9-.18-10.84-.67S76.15,272.86,70.47,267h0c-.44,1.05-.77,1.85-.78,1.91a29.61,29.61,0,0,1-.78,3.88,46.78,46.78,0,0,1-3.51,9h-3l-23.73,0s4.48-6.9,3.28-24.6c0-.44,4.13-14.72,4.13-14.72s3.23-.56,7-.87c.35.33,1.08,9.72,5.76,10.26.76.09,5.64,7.54,5.64,7.54l1.47-7.61-1.74-10.1a49.94,49.94,0,0,1,5.33,1.64,5.83,5.83,0,0,1,3,2.64c3.27,6,13.87,25.23,15,25.68a81.8,81.8,0,0,0,8.88,1.92h0c5.41,1,11.21,1.92,11.21,1.92l1.07,3.15Z"/><polygon class="cls-11" points="67.1 281.79 65.4 281.8 65.4 281.79 67.1 281.79 67.1 281.79"/><path class="cls-23" d="M65.85,236.19s-11.54-.23-11.29-7.41-1.07-12.06,6.31-12.22,8.72,2.64,9.22,5.06-1.23,14.44-4.24,14.57Z"/><path class="cls-7" d="M97.91,278.81h-2c-4.51,0-9-.18-10.84-.67S76.15,272.86,70.47,267h0a40.06,40.06,0,0,1,1.72-5.35c.51-.77,2.55,6.69,7.31,9.72s12.2,5.17,15.82,4.3c2.44-.58,2.69,1.62,2.59,3.11Z"/><path class="cls-25" d="M63.59,232.19s.07.86,2,1c0,0,1.59.11,1.66-.81a4.67,4.67,0,0,0-3.62-.19Z"/><path class="cls-10" d="M64.21,235.1A12.64,12.64,0,0,1,56,226.75l.7-.17-.35.09.35-.09a11.94,11.94,0,0,0,7.7,7.83l.12,0-.21.69-.13,0Z"/><path class="cls-22" d="M65,235.58l-.61-.19a.6.6,0,1,1,.36-1.15l.62.2a.6.6,0,1,1-.37,1.14Z"/><path class="cls-17" d="M66.51,215.61s-3,8.75-7.39,10.24-5.9-.27-5.9-.27a12.8,12.8,0,0,0,3.64-7.86S64,212,66.51,215.61Z"/><path class="cls-17" d="M61,218.19s6-.34,7.82,1.37c1.29,1.24,1.26,1.88,1.36,3.53,0,0,2.64-4.06-.07-6.9-2.87-3-9.11,2-9.11,2Z"/><path class="cls-17" d="M66.25,216.54s-1.5,8.37-7,11.41c0,0,5.33-5.46,5.43-10.92s1.58-.49,1.58-.49Z"/><path class="cls-17" d="M46.37,233.45c1.78,1.88,6.73,2.53,6.73,2.53a3.94,3.94,0,0,1-.42-1c2.55,2.07,8.8.57,8.8.57-5-1.1-3.37-8.3-1.68-8.61a155.14,155.14,0,0,1,3.87-15.22l-.34,0c-13.2-5.11-18.73,19.87-17,21.74Z"/><path class="cls-22" d="M57.21,232.12l-.48.06a3.9,3.9,0,0,1-4.39-3.32L52,226.37A3.9,3.9,0,0,1,55.31,222l.48-.07a3.9,3.9,0,0,1,4.39,3.32l.35,2.49a3.91,3.91,0,0,1-3.32,4.4Z"/><path class="cls-22" d="M54.09,223c-.28-.53.71-4.66,2.17-7.86A9.8,9.8,0,0,1,60,211a2.79,2.79,0,0,1,1.57,0,11.36,11.36,0,0,1,1.37.56c-4.18,1.3-7.81,10.06-7.55,11a.14.14,0,0,0,0-.07l-1.3.55Z"/><path class="cls-26" d="M56.25,229.64l-.24,0A2,2,0,0,1,53.82,228l-.17-1.24a1.94,1.94,0,0,1,1.66-2.19l.23,0a2,2,0,0,1,2.19,1.66l.17,1.24a1.94,1.94,0,0,1-1.65,2.19Z"/><path class="cls-23" d="M84.26,274.44s4.95-.29,5.43,0A28.06,28.06,0,0,1,93.54,277a27.4,27.4,0,0,1,1.51,2.5s-.47.13-.68-.06-1.83-1.91-1.83-1.91l1.66,2.52a1.4,1.4,0,0,1-.8-.28c-.23-.25-1.78-1.82-1.78-1.82l-.53-.11a5.35,5.35,0,0,1,.83.83,5.52,5.52,0,0,1,.49.81,4.05,4.05,0,0,1-.63-.15c-.14-.07-1.53-1.29-1.53-1.29l.73,1a1.94,1.94,0,0,1-.66-.13,10.39,10.39,0,0,0-1.43-1.11,6.37,6.37,0,0,1-2.17-.37c-.59-.31-2.46-1-2.46-1v-2Z"/><path class="cls-7" d="M53.69,240.19s-3.31,1-4.06,1.72c0,0,3.46,8.85,8.45,13l1.33-.95v2.15l5,3.27s-11-16.5-10.72-19.17Z"/><path class="cls-7" d="M68.91,272.82a46.78,46.78,0,0,1-3.51,9H51.46c-.05-.17,2.66-7.51-1.83-10.52s-6.13-10.43-6.13-10.43l14.32-3.5s5.9,8.61,7.58,10.25c1.29,1.26,4.29,1.35,4.29,1.35l-.78,3.88Z"/><path class="cls-7" d="M64.14,241.65s1.52,12,.27,17.71c0,0,2-3.76,2.33-4.44l-.35-2.07,1.32.46s-1.16-9.6-2.21-11.28-1.44-1.84-1.44-1.84l.08,1.46Z"/><path class="cls-23" d="M108.56,278.6s-6.39.24-12.63.21c-1.55-2.4.35-5.28.35-5.28h0c5.41,1,11.21,1.92,11.21,1.92l1.07,3.15Z"/><path class="cls-22" d="M109.16,281.8H85.56a1.88,1.88,0,0,1,1.88-1.88h21.72v1.88Z"/><polygon class="cls-22" points="145.59 256.09 136.83 281.8 100.11 281.8 109.1 256.09 145.59 256.09 145.59 256.09"/><polygon class="cls-26" points="145.59 256.09 136.91 281.56 136.83 281.8 100.64 281.8 109.63 256.09 145.59 256.09 145.59 256.09"/><path class="cls-27" d="M126.45,268.71a2.38,2.38,0,0,1-2.19,1.78,1.38,1.38,0,0,1-1.37-1.78,2.37,2.37,0,0,1,2.19-1.78,1.37,1.37,0,0,1,1.37,1.78Z"/><polygon class="cls-22" points="145.59 256.09 136.91 281.56 120.29 281.56 140.56 256.09 145.59 256.09 145.59 256.09"/><path class="cls-23" d="M84.26,276.44s-12.15,1.06-18.86.76v-6.6c4.4,1.22,18.86,3.84,18.86,3.84v2Z"/><path class="cls-11" d="M49.63,241.91s-7,.16-9.1,2.48,2.13,15.45,2.13,15.45,13,15.86,19.43,17c0,0,2.84.39,4.16.41,0,0-1.3-3.77,1.11-6.14,0,0-2.77-.78-2.89-1.12s-14.84-28.06-14.84-28.06Z"/><path class="cls-28" d="M340,212s-7-2.62-11.43,2.52c-2.52,3-18.64,33.68-18.45,36.37a6.1,6.1,0,0,0,1.73,4s-.67-2.35-.17-3.58c0,0-.32,4.15,2.23,5.91,1.34.92,34.52-.88,37.41-4.9,6.27-8.73-7.43-13.26-7.09-22.7.19-5.47,5.57-17.1-4.23-17.65Z"/><path class="cls-22" d="M346.7,231.59l-.47.1a3.91,3.91,0,0,1-4.59-3.05l-.5-2.46a3.9,3.9,0,0,1,3-4.59l.48-.1a3.92,3.92,0,0,1,4.59,3l.49,2.46a3.9,3.9,0,0,1-3,4.59Z"/><path class="cls-26" d="M376.81,281.75h-22c-3.74-5.93-7-13.93-7.78-20.17-.37-2.95-.17-5.51.82-7.26,3.08-5.43-1.8-11.81-1.8-11.81s6.72,1.9,8.28,7.44,5.86,24.4,5.86,24.4l16.35,3.37a7.63,7.63,0,0,1,.29,4Z"/><path class="cls-22" d="M376.81,281.75h-22c-3.74-5.93-7-13.93-7.78-20.17l3.26-1s4.13,18.86,6.54,19.15,20,2,20,2Z"/><path class="cls-23" d="M349.28,251.44a20.2,20.2,0,0,1-6.67,3.77c-10.53,3.72-15.7-4.94-18-11a9.45,9.45,0,0,1,3.54-1.54c.77-.18,1.58-.33,2.26-.44,1.11-1.07,2.49-5.08,2.22-11l.52.08,8.79,1.37s-.09,2.75,0,5.33c.08,2,.27,3.94.7,4.36l1.09.12h0a55.73,55.73,0,0,1,5.5,9Z"/><path class="cls-24" d="M342,232.61s-.09,2.75,0,5.33c-4.88.06-7.64-4.28-8.8-6.7l8.79,1.37Z"/><path class="cls-26" d="M353.47,260.58c0,.19-2.37,7.82-2.4,8-.81,6.39-2.29,13.21-2.29,13.21h-3.22l-21.28,0s2.57-7.75-4.2-19.62l-.7-1.18c-1-1.58,5.12-18.52,5.12-18.52s2.67-.47,6.4-.77c.36.32,3,9.82,7.65,10.11,6.13.38,3.81-10.21,3.81-10.21a21.42,21.42,0,0,1,6.6,2.23s4.64,15.75,4.51,16.79Z"/><path class="cls-23" d="M343.57,235.12s-11.53.49-11.73-6.7-1.8-12,5.55-12.58,8.86,2.09,9.51,4.48-.33,14.49-3.33,14.8Z"/><path class="cls-25" d="M341.06,231.27s.13.86,2,.87c0,0,1.59,0,1.6-.91a4.71,4.71,0,0,0-3.63,0Z"/><path class="cls-10" d="M341.86,234.13a12.68,12.68,0,0,1-8.68-7.82l.69-.22-.34.11.34-.11a11.94,11.94,0,0,0,8.17,7.34l.12,0-.16.7-.14,0Z"/><path class="cls-28" d="M342.64,234.57l-.63-.15a.6.6,0,0,1,.29-1.17l.63.16a.6.6,0,0,1,.43.73.59.59,0,0,1-.72.43Z"/><path class="cls-28" d="M337,211.37s7.43-1.16,10.5,5c2.34,4.71.39,7.65-.52,8.55,0,0-1.22-6.76-3.49-7.34a2.46,2.46,0,0,0-2.46.72c-1,1.16-2.44,6.33-4.1,7.12,0,0-5.14,1.27-5.4-.52s-.11-7.39,1.19-8.29,4.28-5.26,4.28-5.26Z"/><path class="cls-22" d="M334.69,231.59l-.47.1a3.91,3.91,0,0,1-4.59-3.05l-.5-2.46a3.91,3.91,0,0,1,3.05-4.59l.47-.1a3.92,3.92,0,0,1,4.59,3l.5,2.46a3.91,3.91,0,0,1-3.05,4.59Z"/><path class="cls-22" d="M331,222.71c-.32-.51-.78-4.63.48-7.92a5.48,5.48,0,0,1,2.83-3.1,3.33,3.33,0,0,1,1.46-.34l1.24,0c-4.09,1.56-5,9.89-4.72,10.78a.16.16,0,0,0,0-.06l-1.26.62Z"/><path class="cls-26" d="M333.58,229.18l-.23,0a2,2,0,0,1-2.29-1.52l-.25-1.23a2,2,0,0,1,1.52-2.29l.23,0a1.94,1.94,0,0,1,2.29,1.51l.25,1.23a2,2,0,0,1-1.52,2.29Z"/><path class="cls-22" d="M324.28,281.75s2.57-7.75-4.2-19.62L322.6,259s4.46,12.65,10,16.34,12.13,2.91,12.92,6.47l-21.28,0Z"/><path class="cls-26" d="M324.5,242.43s-4.59.4-7.66,5.83-8.92,25.73-8.92,33.49H332.5a7.63,7.63,0,0,0-.29-4L317,274.78s9.15-13.59,9.25-19.45a56.81,56.81,0,0,0-1.75-12.9Z"/><path class="cls-23" d="M332.64,279.25a42.08,42.08,0,0,1,5.59-.25,23.27,23.27,0,0,1,3.56,1.48,13.48,13.48,0,0,1,1.48,1.27,3.08,3.08,0,0,1-1,0,16.16,16.16,0,0,0-1.73-.18,8.15,8.15,0,0,0-1.32.19h-7.43l.82-2.55Z"/><path class="cls-18" d="M376,281.8H352.4a1.89,1.89,0,0,1,1.89-1.88H376v1.88Z"/><polygon class="cls-18" points="412.43 256.09 403.68 281.8 366.95 281.8 375.94 256.09 412.43 256.09 412.43 256.09"/><polygon class="cls-14" points="412.43 256.09 403.75 281.56 403.68 281.8 367.49 281.8 376.48 256.09 412.43 256.09 412.43 256.09"/><path class="cls-26" d="M393.29,268.71a2.38,2.38,0,0,1-2.19,1.78,1.37,1.37,0,0,1-1.36-1.78,2.35,2.35,0,0,1,2.18-1.78,1.37,1.37,0,0,1,1.37,1.78Z"/><polygon class="cls-18" points="412.43 256.09 403.75 281.56 387.13 281.56 407.4 256.09 412.43 256.09 412.43 256.09"/></svg>